<svg xmlns="http://www.w3.org/2000/svg" viewBox="0 0 105.34 22.64" class="handwritten3" height="100px">
  
  <g id="handmadescents">
      <path mask="url(#mask-hand-h)"  id="handmade-h" d="M9.71,86.54c-.13.23-.27.46-.42.7s-.28.49-.41.74c-.53,1-1.05,2-1.57,3.18s-1,2.31-1.49,3.51-.93,2.38-1.36,3.57-.81,2.31-1.14,3.36l-.27.87c0,.06,0,.11-.06.15l0,.12c.24-.29.5-.58.78-.88s.56-.59.84-.87.54-.52.78-.75A7.39,7.39,0,0,1,6,99.7a6.28,6.28,0,0,1,.79-.47,1.61,1.61,0,0,1,.69-.18.53.53,0,0,1,.46.22A1,1,0,0,1,8,100l-.22,1v0q-.1.44-.21.84a1.64,1.64,0,0,0,0,.68.38.38,0,0,0,.41.38,3.7,3.7,0,0,0,1.42-.54l.71-.42a5.6,5.6,0,0,0,.66-.48l.13-.09a.51.51,0,0,0,.16-.12l.16-.13a.29.29,0,0,1,.25,0,.45.45,0,0,1,.26.12q.06.11-.18.33c-.28.21-.58.44-.91.67s-.67.45-1,.64a6.11,6.11,0,0,1-1,.45,2.55,2.55,0,0,1-.87.18.87.87,0,0,1-.56-.18.8.8,0,0,1-.26-.59,1.72,1.72,0,0,1,0-.46,2.74,2.74,0,0,1,.09-.55l.09-.34c0-.14.08-.29.12-.46s.09-.35.12-.51,0-.3.06-.41,0-.18-.07-.21a.86.86,0,0,0-.53.14,4.53,4.53,0,0,0-.68.46c-.25.2-.5.43-.77.69l-.75.75c-.24.25-.46.48-.65.71l-.45.51-.16.22-.24.29-.25.31-.2.26,0,0h0a0,0,0,0,0,0,0h0a.44.44,0,0,1-.38.29.14.14,0,0,1-.11,0v0A.2.2,0,0,1,2,104c.25-.86.53-1.77.84-2.75s.65-2,1-3S4.61,96.18,5,95.11,5.87,93,6.32,92s.91-2,1.39-3,1-1.83,1.48-2.63a.38.38,0,0,1,.19-.16.43.43,0,0,1,.24,0,.2.2,0,0,1,.14.13C9.79,86.37,9.77,86.44,9.71,86.54Z" transform="translate(-0.76 -85.57)" fill="#1d1d1b"/>
      <path mask="url(#mask-hand-an)"  id="handmade-an" d="M14.53,100s0,.06,0,.08l.08-.08a2.09,2.09,0,0,1,.59-.37.43.43,0,0,1,.47.1.48.48,0,0,1,.12.44,1,1,0,0,1-.08.31c0,.11-.07.21-.1.28l-.08.23a.79.79,0,0,0,0,.22c.13,0,.31,0,.54-.23a7.51,7.51,0,0,0,.7-.69q.24-.26.45-.51c.14-.18.28-.33.41-.48a2.59,2.59,0,0,0,.18-.21l.29-.31a2.17,2.17,0,0,1,.3-.28,3.58,3.58,0,0,1,.45-.31,1.17,1.17,0,0,1,.49-.18.42.42,0,0,1,.4.12.75.75,0,0,1,.08.43,4.1,4.1,0,0,1-.08.65,7.33,7.33,0,0,1-.19.74q-.12.38-.24.72l-.18.52a1.65,1.65,0,0,0-.09.22c0,.08-.05.12,0,.12a.08.08,0,0,1,0,.07s0,0,0,.06l-.15.4c-.06.17-.11.33-.17.51s-.11.34-.16.51-.09.32-.12.45c.16-.17.35-.39.58-.66l.7-.81.56-.65.38-.42h0l0,0,.06,0c.14-.15.32-.32.53-.52a8.24,8.24,0,0,1,.65-.55,4.45,4.45,0,0,1,.68-.4.87.87,0,0,1,.6-.08.5.5,0,0,1,.34.34,1.89,1.89,0,0,1,.13.49,2.2,2.2,0,0,1,0,.5,4.09,4.09,0,0,1-.13.56v0l-.13.47a3.28,3.28,0,0,0-.14.56,2.26,2.26,0,0,0-.06.43c.05.07.2.07.45,0a8.91,8.91,0,0,0,.84-.3c.32-.13.64-.28,1-.43l.8-.4.32-.18a.29.29,0,0,1,.41.13.24.24,0,0,1,0,.22.43.43,0,0,1-.13.19l-.33.16c-.24.14-.51.28-.82.44s-.63.3-1,.43a6.54,6.54,0,0,1-.92.3,1.33,1.33,0,0,1-.7,0,.62.62,0,0,1-.52-.68,2.11,2.11,0,0,1,.07-.54c.05-.2.1-.39.16-.6l.11-.34a5,5,0,0,0,.15-.68.81.81,0,0,0-.09-.51,1.78,1.78,0,0,0-.71.35,9.74,9.74,0,0,0-.81.68c-.28.29-.6.62-.93,1s-.63.73-.88,1c-.08.08-.14.16-.2.23a3.47,3.47,0,0,1-.29.31l-.07.09h0c-.08.08-.16.18-.26.3a1.7,1.7,0,0,1-.31.29.65.65,0,0,1-.34.14.4.4,0,0,1-.32-.19.74.74,0,0,1-.07-.48,5.25,5.25,0,0,1,.16-.79c.09-.31.19-.64.31-1s.24-.7.38-1l.1-.31c.15-.42.27-.81.38-1.16a3.63,3.63,0,0,0,.18-.82,1.37,1.37,0,0,0-.52.35l-.38.41-.26.28-.31.38-.35.42a9.15,9.15,0,0,1-1,1,1.34,1.34,0,0,1-1,.39.55.55,0,0,1-.41-.2.66.66,0,0,1-.11-.36,1.32,1.32,0,0,1,.06-.39c0-.13.07-.24.1-.35l.06-.16-.09.07v0l-.45.48c-.21.22-.41.45-.61.69l-.64.7a8.84,8.84,0,0,1-.69.68,5.81,5.81,0,0,1-.7.55,2,2,0,0,1-.67.3.86.86,0,0,1-.77-.13.8.8,0,0,1-.22-.59,2.13,2.13,0,0,1,.1-.64,4,4,0,0,1,.26-.62,3.89,3.89,0,0,1,1.5-1.56,4.44,4.44,0,0,1,2.1-.56.29.29,0,0,1,.21.09A.32.32,0,0,1,14.53,100Zm-.3.27a3.87,3.87,0,0,0-1.78.51,3.63,3.63,0,0,0-1.3,1.31s-.06.12-.11.23a2.52,2.52,0,0,0-.13.33c0,.12-.06.23-.08.33a.32.32,0,0,0,0,.23.93.93,0,0,0,.59-.11,3.41,3.41,0,0,0,.65-.46,7.13,7.13,0,0,0,.68-.67l.65-.76c.14-.17.28-.33.44-.49l.45-.46Z" transform="translate(-0.76 -85.57)" fill="#1d1d1b"/>
      <path mask="url(#mask-hand-d)"  id="handmade-d" d="M31.2,100.06a7.1,7.1,0,0,0,.12,1.13,1.83,1.83,0,0,0,.35.87.9.9,0,0,0,.72.32,1.69,1.69,0,0,0,.6-.12,5.32,5.32,0,0,0,.65-.3,6.64,6.64,0,0,0,.65-.43l.6-.45v0l.2-.18c.08,0,.19,0,.32.09a.3.3,0,0,1,0,.21.39.39,0,0,1-.13.21c-.41.32-.87.64-1.37,1a3.83,3.83,0,0,1-1.48.58,1.41,1.41,0,0,1-1.38-.55,2.53,2.53,0,0,1-.34-.74,4.54,4.54,0,0,1-.13-.94A22.81,22.81,0,0,1,28.32,103a7.82,7.82,0,0,1-.86.55,1.84,1.84,0,0,1-.85.24.73.73,0,0,1-.68-.38.86.86,0,0,1-.1-.62,2.27,2.27,0,0,1,.28-.74,5.51,5.51,0,0,1,.54-.78c.23-.26.46-.52.71-.76a7.59,7.59,0,0,1,.74-.67,6.25,6.25,0,0,1,.65-.48,5.59,5.59,0,0,1,1-.48,1.18,1.18,0,0,1,.89,0,19.33,19.33,0,0,1,.39-2.09c.17-.67.32-1.22.45-1.64s.29-.86.49-1.41.44-1.16.72-1.79.58-1.26.91-1.9a15.36,15.36,0,0,1,1.06-1.79,9.28,9.28,0,0,1,1.18-1.44A3.77,3.77,0,0,1,37.14,86a2.14,2.14,0,0,1,.67-.13.86.86,0,0,1,.76.37,1.5,1.5,0,0,1,.21.93,6.17,6.17,0,0,1-.39,1.5,19.23,19.23,0,0,1-.86,1.95c-.36.7-.77,1.44-1.24,2.22s-1,1.57-1.49,2.36-1.07,1.57-1.63,2.33S32.06,99,31.52,99.66Zm-.81-.56a.63.63,0,0,0-.71,0,4.22,4.22,0,0,0-.95.54,10.06,10.06,0,0,0-.92.81,6.33,6.33,0,0,0-.66.7,5.22,5.22,0,0,0-.47.65,1.44,1.44,0,0,0-.23.68.4.4,0,0,0,.32.38,1,1,0,0,0,.72-.23,8.31,8.31,0,0,0,1-.78c.36-.32.72-.69,1.09-1.09s.72-.78,1-1.14v-.19a.53.53,0,0,1,0-.19.26.26,0,0,1-.24-.09Zm1.3-.85c.34-.44.74-1,1.18-1.59s.9-1.27,1.37-2,.93-1.41,1.38-2.15.86-1.46,1.22-2.15a18,18,0,0,0,.9-2,5.63,5.63,0,0,0,.41-1.54.83.83,0,0,0-.2-.68.68.68,0,0,0-.74-.08,3,3,0,0,0-.91.66,9.2,9.2,0,0,0-.9,1.07q-.43.62-.84,1.32c-.27.47-.52,1-.76,1.41s-.44.92-.62,1.33l-.45,1.07c-.13.36-.27.77-.42,1.24s-.3,1-.43,1.47-.27,1-.38,1.55a13,13,0,0,0-.25,1.52Z" transform="translate(-0.76 -85.57)" fill="#1d1d1b"/>
      <path mask="url(#mask-hand-m)"  id="handmade-m" d="M36.53,98.62c-.1.2-.21.45-.33.73l-.39.91c-.19.42-.37.81-.52,1.17s-.3.69-.42,1c.25-.35.54-.73.86-1.15s.63-.8.94-1.17a11.45,11.45,0,0,1,.87-.92,1.21,1.21,0,0,1,.66-.4.42.42,0,0,1,.41.13.71.71,0,0,1,.11.41,3,3,0,0,1-.18,1c-.12.36-.24.7-.36,1l-.13.38a2.41,2.41,0,0,0-.08.25,2,2,0,0,0,.33-.37l.41-.53.6-.77a4.57,4.57,0,0,1,.63-.67,1.54,1.54,0,0,1,.6-.34.48.48,0,0,1,.51.18h0a.87.87,0,0,1,.17.33,1.91,1.91,0,0,1,0,.43c0,.1,0,.22,0,.34s0,.24,0,.36,0,.42,0,.61a1.14,1.14,0,0,0,0,.5.64.64,0,0,0,.14.23.46.46,0,0,0,.29.08,2.12,2.12,0,0,0,.79-.23,9.79,9.79,0,0,0,1.32-.74l.13-.08.14-.1.25-.16a.39.39,0,0,1,.23-.07.25.25,0,0,1,.18.1.26.26,0,0,1,0,.21.56.56,0,0,1-.17.21,13.21,13.21,0,0,1-1.9,1.11,3.24,3.24,0,0,1-1.21.34.73.73,0,0,1-.59-.21,1.31,1.31,0,0,1-.22-.54,5.47,5.47,0,0,1,0-.6c0-.21,0-.42,0-.63s0-.21,0-.31,0-.2,0-.3a.7.7,0,0,0-.12-.47c-.05,0-.12.05-.21.13a3.63,3.63,0,0,0-.27.28l-.25.29a1.15,1.15,0,0,0-.15.19l-.22.28c-.12.17-.26.36-.43.56a7.19,7.19,0,0,1-.52.57,2.62,2.62,0,0,1-.51.41.52.52,0,0,1-.45.08.29.29,0,0,1-.14-.24,1.49,1.49,0,0,1,0-.41,3.14,3.14,0,0,1,.16-.53c.07-.2.14-.39.21-.6a7.15,7.15,0,0,0,.32-.91c.08-.28.07-.46,0-.55a2.19,2.19,0,0,0-.64.5,10.51,10.51,0,0,0-.76.9c-.27.34-.53.7-.79,1.07l-.71,1c-.2.3-.38.55-.53.75s-.25.32-.31.34-.22,0-.26-.07a.68.68,0,0,1,0-.27,3,3,0,0,1,.15-.82c.1-.33.23-.68.38-1.06s.31-.76.49-1.14.33-.73.47-1l.45-1a.33.33,0,0,1,.16-.19.43.43,0,0,1,.24-.08.22.22,0,0,1,.2.09A.33.33,0,0,1,36.53,98.62Z" transform="translate(-0.76 -85.57)" fill="#1d1d1b"/>
      <path mask="url(#mask-hand-a)"  id="handmade-a" d="M47.29,100.24a2.85,2.85,0,0,0-1.61.3,3.77,3.77,0,0,0-1.36,1.26,5.45,5.45,0,0,0-.29.53,1.33,1.33,0,0,0-.12.5.37.37,0,0,0,.15.31.71.71,0,0,0,.44.09,2,2,0,0,0,.88-.43,7.61,7.61,0,0,0,.91-.83,11.62,11.62,0,0,0,.87-1l.71-.94.2-.23.1-.17c.17-.2.33-.28.47-.24s.19.16.15.35a.64.64,0,0,0-.06.22c0,.08,0,.18,0,.29a2.65,2.65,0,0,0-.06.42c0,.15,0,.3,0,.46a3.81,3.81,0,0,0,.05.59,1.9,1.9,0,0,0,.15.51,1,1,0,0,0,.28.36.66.66,0,0,0,.42.14,1.66,1.66,0,0,0,.65-.16,5,5,0,0,0,1-.64l.95-.8v0l.09-.09a.6.6,0,0,1,.22-.12.2.2,0,0,1,.2.06v0a.15.15,0,0,1,.06.18.46.46,0,0,1-.14.24c-.24.23-.46.43-.67.61s-.41.34-.59.47a4.67,4.67,0,0,1-1.12.65,2.41,2.41,0,0,1-.87.19,1.12,1.12,0,0,1-.62-.16,1.34,1.34,0,0,1-.41-.44,1.84,1.84,0,0,1-.23-.66,4,4,0,0,1-.08-.79V101c0-.09,0-.18,0-.28-.24.31-.5.64-.78,1a10.34,10.34,0,0,1-.9,1,5.89,5.89,0,0,1-1,.75,2.22,2.22,0,0,1-1,.36,1,1,0,0,1-.83-.16.79.79,0,0,1-.25-.61,2.2,2.2,0,0,1,.21-.88,4.73,4.73,0,0,1,2.24-2.22,3.84,3.84,0,0,1,1.85-.29.26.26,0,0,1,.13.14.25.25,0,0,1,0,.24.46.46,0,0,1-.17.17A.4.4,0,0,1,47.29,100.24Z" transform="translate(-0.76 -85.57)" fill="#1d1d1b"/>
      <path mask="url(#mask-hand-dd)"  id="handmade-d-2" data-name="handmade-d" d="M56.69,100.06a8.48,8.48,0,0,0,.11,1.13,1.94,1.94,0,0,0,.36.87.9.9,0,0,0,.72.32,1.69,1.69,0,0,0,.6-.12,6.11,6.11,0,0,0,.65-.3,6.51,6.51,0,0,0,.64-.43l.61-.45v0l.2-.18c.08,0,.19,0,.32.09a.37.37,0,0,1,0,.21.36.36,0,0,1-.14.21,16,16,0,0,1-1.36,1,3.83,3.83,0,0,1-1.48.58,1.41,1.41,0,0,1-1.38-.55,2.29,2.29,0,0,1-.34-.74,4,4,0,0,1-.13-.94A22.81,22.81,0,0,1,53.81,103a7.94,7.94,0,0,1-.87.55,1.8,1.8,0,0,1-.84.24.76.76,0,0,1-.69-.38.92.92,0,0,1-.1-.62,2.84,2.84,0,0,1,.28-.74,6.64,6.64,0,0,1,.55-.78c.22-.26.46-.52.7-.76s.5-.47.74-.67a7.5,7.5,0,0,1,.66-.48,5.52,5.52,0,0,1,1-.48,1.21,1.21,0,0,1,.9,0,17.17,17.17,0,0,1,.39-2.09c.17-.67.32-1.22.45-1.64s.28-.86.49-1.41.44-1.16.72-1.79.58-1.26.91-1.9a15.36,15.36,0,0,1,1.06-1.79,9.28,9.28,0,0,1,1.18-1.44A3.77,3.77,0,0,1,62.63,86a2.14,2.14,0,0,1,.66-.13.87.87,0,0,1,.77.37,1.5,1.5,0,0,1,.21.93,6.17,6.17,0,0,1-.39,1.5A17.42,17.42,0,0,1,63,90.6q-.52,1.05-1.23,2.22c-.47.78-1,1.57-1.49,2.36s-1.07,1.57-1.63,2.33S57.55,99,57,99.66Zm-.81-.56a.63.63,0,0,0-.71,0,4.22,4.22,0,0,0-1,.54,11.72,11.72,0,0,0-.93.81,7.13,7.13,0,0,0-.65.7,5.22,5.22,0,0,0-.47.65,1.33,1.33,0,0,0-.23.68.39.39,0,0,0,.32.38A1,1,0,0,0,53,103a8.31,8.31,0,0,0,1-.78c.35-.32.72-.69,1.09-1.09l1-1.14v-.19a1,1,0,0,1,0-.19.25.25,0,0,1-.23-.09Zm1.29-.85c.35-.44.75-1,1.19-1.59s.9-1.27,1.37-2,.93-1.41,1.38-2.15.85-1.46,1.22-2.15a18,18,0,0,0,.9-2,6,6,0,0,0,.41-1.54.87.87,0,0,0-.2-.68.68.68,0,0,0-.74-.08,3,3,0,0,0-.91.66,7.57,7.57,0,0,0-.9,1.07c-.29.41-.58.85-.85,1.32s-.52,1-.75,1.41-.44.92-.62,1.33l-.45,1.07c-.13.36-.28.77-.43,1.24s-.29,1-.43,1.47-.26,1-.38,1.55a15.33,15.33,0,0,0-.24,1.52Z" transform="translate(-0.76 -85.57)" fill="#1d1d1b"/>
      <path mask="url(#mask-hand-e)"  id="handmade-e" d="M62.3,100.9a4.55,4.55,0,0,1-.69.12l-.55,0a3.52,3.52,0,0,0-.31.39,4.29,4.29,0,0,0-.23.38,1.94,1.94,0,0,0-.23.79.59.59,0,0,0,.22.49.88.88,0,0,0,.7.11,5.65,5.65,0,0,0,.54-.18l.66-.3c.24-.11.49-.24.74-.37l.76-.39c.4-.23.8-.44,1.18-.64a6,6,0,0,1,1-.39c.23,0,.33,0,.3.22a.51.51,0,0,1-.23.27,2.12,2.12,0,0,1-.36.19h0s0,0,0,0L65,102l-.73.41c-.54.3-1.08.58-1.61.85a5.13,5.13,0,0,1-1.54.53,1.33,1.33,0,0,1-1.1-.16,1,1,0,0,1-.34-.81,2.43,2.43,0,0,1,.28-1.1,4.44,4.44,0,0,1,.44-.66,7.84,7.84,0,0,1,.63-.67,6,6,0,0,1,.72-.59,3.68,3.68,0,0,1,.73-.42,2.26,2.26,0,0,1,.44-.08,1.31,1.31,0,0,1,.41.06.69.69,0,0,1,.28.22.48.48,0,0,1,.06.36,1,1,0,0,1-.51.64A2.93,2.93,0,0,1,62.3,100.9Zm-.7-.46h.11l-.09.07Zm1-.51a4.07,4.07,0,0,0-.85.51,6.42,6.42,0,0,0,.8-.14.84.84,0,0,0,.55-.3c0-.06-.06-.09-.18-.1A.66.66,0,0,0,62.56,99.93Z" transform="translate(-0.76 -85.57)" fill="#1d1d1b"/>
      <path mask="url(#mask-hand-s)"  id="scentss-s" d="M71.93,99.59c-.2.06-.31,0-.34-.14s-.14-.27-.29-.22a1.74,1.74,0,0,0-.52.36,3.88,3.88,0,0,0-.39.42,2.09,2.09,0,0,0-.25.46,1.24,1.24,0,0,0-.07.45.73.73,0,0,0,.15.4,3.14,3.14,0,0,0,.49.47l.16.14.54-.27.9-.36c.29-.11.59-.21.9-.31l.14,0,.16,0a.18.18,0,0,1,.13,0,.16.16,0,0,1,0,.16.35.35,0,0,1-.09.23.55.55,0,0,1-.2.15l-.7.22L72,102a4.45,4.45,0,0,1-.42.16,3,3,0,0,0-.36.17,1.35,1.35,0,0,1-.09,1.22,2.14,2.14,0,0,1-.73.85,1.47,1.47,0,0,1-.78.27.93.93,0,0,1-.59-.19.63.63,0,0,1-.24-.52,1.35,1.35,0,0,1,.33-.77,4.12,4.12,0,0,1,1.13-.94l-.18-.12-.3-.27a1.6,1.6,0,0,1-.22-.31,1,1,0,0,1-.09-.64,2.39,2.39,0,0,1,.23-.7,3.63,3.63,0,0,1,.46-.67,4.16,4.16,0,0,1,.61-.58,1.45,1.45,0,0,1,.84-.34c.31,0,.52.18.61.56a.29.29,0,0,1-.14.32v0Zm-1.45,4a1.08,1.08,0,0,0,.22-.54.6.6,0,0,0-.12-.41,3.53,3.53,0,0,0-.91.67.89.89,0,0,0-.26.5.24.24,0,0,0,.12.22.5.5,0,0,0,.28,0,.75.75,0,0,0,.34-.14A1,1,0,0,0,70.48,103.6Zm.14-1a.05.05,0,0,1,0,0s0,0,0,0Z" transform="translate(-0.76 -85.57)" fill="#1d1d1b"/>
      <path mask="url(#mask-hand-c)"  id="scentss-c" d="M75.66,99.86a.44.44,0,0,0,.06-.1l0-.1a1.08,1.08,0,0,0-.39.15,5.81,5.81,0,0,0-.49.32l-.46.37a4.13,4.13,0,0,0-.34.3,4.73,4.73,0,0,0-.7.84,1.68,1.68,0,0,0-.31.88.73.73,0,0,0,.09.35.7.7,0,0,0,.27.27.89.89,0,0,0,.49.12,2.74,2.74,0,0,0,.95-.2,11.55,11.55,0,0,0,1.13-.48c.39-.19.77-.4,1.15-.63l1-.62.43-.25.18-.1a.41.41,0,0,1,.24,0,.18.18,0,0,1,.16.13.29.29,0,0,1,0,.22.44.44,0,0,1-.21.19l-.4.22-.45.27-1.05.62c-.36.21-.73.4-1.11.58a9.44,9.44,0,0,1-1.08.44,4,4,0,0,1-1,.21,1.45,1.45,0,0,1-1.06-.29,1.1,1.1,0,0,1-.37-.86,2.29,2.29,0,0,1,.34-1.12,4.31,4.31,0,0,1,.56-.72,10,10,0,0,1,.82-.76,7.13,7.13,0,0,1,.9-.64,2.87,2.87,0,0,1,.82-.35.53.53,0,0,1,.34.06.27.27,0,0,1,.13.21.66.66,0,0,1,0,.32,1.76,1.76,0,0,1-.17.37.3.3,0,0,1-.18.14.44.44,0,0,1-.25,0C75.56,100.18,75.54,100.06,75.66,99.86Z" transform="translate(-0.76 -85.57)" fill="#1d1d1b"/>
      <path mask="url(#mask-hand-ee)"  id="scentss-e" d="M80.63,100.9a4.46,4.46,0,0,1-.7.12l-.55,0a3.52,3.52,0,0,0-.31.39,4.29,4.29,0,0,0-.23.38,1.94,1.94,0,0,0-.23.79.59.59,0,0,0,.23.49.86.86,0,0,0,.69.11,5.65,5.65,0,0,0,.54-.18l.66-.3c.24-.11.49-.24.74-.37l.76-.39,1.19-.64a5.63,5.63,0,0,1,1-.39c.23,0,.33,0,.31.22a.59.59,0,0,1-.24.27,2.12,2.12,0,0,1-.36.19h0l-.7.35c-.24.13-.49.26-.74.41-.54.3-1.08.58-1.6.85a5.28,5.28,0,0,1-1.55.53,1.33,1.33,0,0,1-1.1-.16,1,1,0,0,1-.34-.81,2.32,2.32,0,0,1,.29-1.1,3.78,3.78,0,0,1,.44-.66,6.39,6.39,0,0,1,.62-.67,8.06,8.06,0,0,1,.72-.59,3.74,3.74,0,0,1,.74-.42,2.14,2.14,0,0,1,.44-.08,1.25,1.25,0,0,1,.4.06.63.63,0,0,1,.28.22.48.48,0,0,1,.07.36,1,1,0,0,1-.52.64A2.88,2.88,0,0,1,80.63,100.9Zm-.71-.46H80l-.09.07Zm1-.51a4.07,4.07,0,0,0-.85.51,6.12,6.12,0,0,0,.8-.14.81.81,0,0,0,.55-.3c0-.06-.06-.09-.18-.1A.66.66,0,0,0,80.88,99.93Z" transform="translate(-0.76 -85.57)" fill="#1d1d1b"/>
      <path mask="url(#mask-hand-n)"  id="scentss-n" d="M94,101a.31.31,0,0,1,0,.21.57.57,0,0,1-.13.21l-.77.56c-.26.19-.51.35-.76.5a7.76,7.76,0,0,1-.72.35A1.73,1.73,0,0,1,91,103a.88.88,0,0,1-.67-.29,1.62,1.62,0,0,1-.32-1v-.4c0-.17,0-.36,0-.57a4.93,4.93,0,0,0-.06-.58,1.2,1.2,0,0,0-.14-.44.3.3,0,0,0-.28-.17,1.85,1.85,0,0,0-.87.26,6.21,6.21,0,0,0-1,.66,11.86,11.86,0,0,0-1,.9c-.33.33-.63.65-.89,1,0,0,0,.08-.13.21l-.27.35-.31.46a4.39,4.39,0,0,1-.34.45,1.39,1.39,0,0,1-.35.31.42.42,0,0,1-.33.07.57.57,0,0,1-.36-.27,1.06,1.06,0,0,1-.11-.5,3.59,3.59,0,0,1,.13-.84,8.58,8.58,0,0,1,.32-1c.14-.34.28-.67.43-1l.42-.91.21-.41.15-.34a.73.73,0,0,1,.17-.19.34.34,0,0,1,.23-.1.2.2,0,0,1,.19.09.23.23,0,0,1,0,.23c0,.06-.06.14-.1.24s-.11.22-.17.36L85,100.6c-.19.41-.37.81-.52,1.2a5.79,5.79,0,0,0-.33,1.07q-.11.47.06.63a.53.53,0,0,1,.12-.17.92.92,0,0,0,.11-.14l.5-.69a6.9,6.9,0,0,1,.65-.79l.56-.57c.22-.22.45-.44.7-.66s.52-.43.8-.64a7.47,7.47,0,0,1,.81-.53,3,3,0,0,1,.76-.32,1.33,1.33,0,0,1,.68,0,.69.69,0,0,1,.38.26,1.49,1.49,0,0,1,.21.44,2,2,0,0,1,.08.56c0,.2,0,.41,0,.61s0,.4,0,.58a3.14,3.14,0,0,0,.06.48,1,1,0,0,0,.17.35.45.45,0,0,0,.34.12l.23,0a.94.94,0,0,0,.32-.11,5.24,5.24,0,0,0,.89-.51l.86-.61.11-.09a.69.69,0,0,1,.23-.07A.19.19,0,0,1,94,101Z" transform="translate(-0.76 -85.57)" fill="#1d1d1b"/>
      <path mask="url(#mask-hand-t)"  id="scentss-t" d="M102.14,101a.26.26,0,0,1,0,.21.8.8,0,0,1-.15.21c-.75.58-1.55,1.18-2.39,1.78s-1.66,1.16-2.45,1.69l-.08,0A.16.16,0,0,0,97,105c-.25.17-.56.36-.93.59s-.74.44-1.12.65a8.5,8.5,0,0,1-1.1.49,1.37,1.37,0,0,1-.83.1.68.68,0,0,1-.44-.39,2,2,0,0,1-.13-.79,6.72,6.72,0,0,1,.19-1.47c.13-.57.31-1.19.53-1.86s.48-1.38.78-2.12.6-1.48.92-2.22.66-1.48,1-2.19.67-1.39,1-2l-1.73.09c-.58,0-1.09.11-1.52.19A.35.35,0,0,1,93.4,94a.14.14,0,0,1-.08-.17.43.43,0,0,1,.11-.21.53.53,0,0,1,.23-.13,11.45,11.45,0,0,1,1.62-.21l1.87-.1c.31-.61.6-1.17.86-1.66l.6-1.11.14-.27a8.5,8.5,0,0,1,.47-.78,4.85,4.85,0,0,1,.68-.79c.17-.1.29-.08.36.08a.24.24,0,0,1,0,.2.8.8,0,0,1-.15.21c-.15.2-.32.45-.51.74s-.38.61-.59,1-.41.74-.62,1.14-.42.82-.63,1.25h.07l.88,0h.79l.71,0h.71a.22.22,0,0,1,.2.09.23.23,0,0,1,0,.23.3.3,0,0,1-.15.2.45.45,0,0,1-.25.07h-.84l-.85,0h-.65l-.75,0h-.16c-.23.45-.45.91-.67,1.36s-.42.88-.61,1.3-.37.81-.52,1.17l-.4.92-.33.79-.46,1.14q-.25.65-.51,1.35c-.16.48-.32.95-.45,1.41s-.26.9-.35,1.3a5,5,0,0,0-.13,1c0,.39.11.64.32.74a2,2,0,0,0,.88-.27c.42-.21.91-.48,1.45-.81s1.13-.72,1.75-1.14l1.77-1.22c.57-.4,1.07-.76,1.51-1.09l1-.75a.45.45,0,0,1,.23-.06A.21.21,0,0,1,102.14,101Z" transform="translate(-0.76 -85.57)" fill="#1d1d1b"/>
      <path mask="url(#mask-hand-ss)"  id="scentss-s-2" data-name="scentss-s" d="M104.1,99.59c-.21.06-.32,0-.34-.14s-.15-.27-.29-.22a1.52,1.52,0,0,0-.52.36,2.56,2.56,0,0,0-.39.42,1.74,1.74,0,0,0-.25.46,1.06,1.06,0,0,0-.07.45.6.6,0,0,0,.15.4,2.68,2.68,0,0,0,.48.47l.17.14.54-.27.9-.36c.28-.11.58-.21.9-.31l.13,0,.16,0a.21.21,0,0,1,.14,0,.16.16,0,0,1,0,.16.35.35,0,0,1-.09.23.53.53,0,0,1-.19.15l-.71.22-.7.26a4.3,4.3,0,0,1-.41.16,3,3,0,0,0-.36.17,1.35,1.35,0,0,1-.09,1.22,2.3,2.3,0,0,1-.73.85,1.47,1.47,0,0,1-.78.27,1,1,0,0,1-.6-.19A.65.65,0,0,1,101,104a1.4,1.4,0,0,1,.32-.77,4.35,4.35,0,0,1,1.14-.94l-.18-.12-.3-.27a1.66,1.66,0,0,1-.23-.31,1.13,1.13,0,0,1-.09-.64,2.42,2.42,0,0,1,.24-.7,3.2,3.2,0,0,1,.46-.67,3.65,3.65,0,0,1,.6-.58,1.45,1.45,0,0,1,.85-.34c.31,0,.51.18.61.56a.31.31,0,0,1-.15.32v0Zm-1.46,4a1.11,1.11,0,0,0,.23-.54.73.73,0,0,0-.12-.41,3.62,3.62,0,0,0-.92.67.86.86,0,0,0-.25.5.24.24,0,0,0,.12.22.47.47,0,0,0,.27,0,.78.78,0,0,0,.35-.14A1,1,0,0,0,102.64,103.6Zm.14-1,0,0a.05.05,0,0,1,0,0Z" transform="translate(-0.76 -85.57)" fill="#1d1d1b"/>
  </g>

<defs>
  <g id="handmade-masks">
    
    <mask id="mask-hand-h"> 
    <path class="mask3" id="mask3-h" d="M9.84,85.85S5,92.75,2,104.67c0,0,3.79-5.52,5.6-5.3.47.25-.82,3.83-.2,3.85a10.61,10.61,0,0,0,3.92-1.61" fill="none" stroke="#b61733" stroke-miterlimit="10"/>
    </mask>

    <mask id="mask-hand-an"> 
    <path class="mask3" id="mask3-an" d="M15,100s-2.47-.25-3.11.67-2.08,2.17-1.1,2.83S15,100,15,100s.9-.76.23,1.17,3.31-2.68,3.31-2.68,1.46-1.47.66,1.56-1.21,3.21-1.18,3.76,2.85-2.59,3.3-3.29a2.85,2.85,0,0,1,1.61-1A12.37,12.37,0,0,1,23.2,101c.06.67-.66,1.64-.43,1.95s3.93-1.36,3.93-1.36" fill="none" stroke="#b61733" stroke-miterlimit="10"/>
    </mask>
  
    <mask id="mask-hand-d"> 
    <path class="mask3" id="mask3-d" d="M30.82,99.39S28.7,97.58,26.19,103c0,1.14,2.82-.31,4.42-2.47s7.75-11.26,7.76-13.17c0-2.08-2.13-2-5.35,4.68s-2,9.82-1.41,10.53c.42.51,3.42-1.32,3.42-1.32" fill="none" stroke="#b61733" stroke-miterlimit="10"/>
    </mask>

    <mask id="mask-hand-m"> 
    <path class="mask3" id="mask3-m" d="M36.44,98.21,34.14,104s3.44-5.16,4-4.86-.5,2.82-.55,3.07,1.37-.87,2.26-2.09,1-.41,1,.48-.2,2.42,1.08,2a12.9,12.9,0,0,0,2.6-1.42" fill="none" stroke="#b61733" stroke-miterlimit="10"/>
    </mask>

    <mask id="mask-hand-a"> 
    <path class="mask3" id="mask3-a" d="M47.69,100s-2-.29-3,.88-1.86,3.38.45,2.46a43.13,43.13,0,0,0,3.51-4s-.82,3.18.12,3.51,3-.71,3.85-1.82" fill="none" stroke="#b61733" stroke-miterlimit="10"/>
    </mask>

    <mask id="mask-hand-dd"> 
    <path class="mask3" id="mask3-dd" data-name="mask3-dd" d="M56.38,99.39a2.06,2.06,0,0,0-2.45.5c-1.32,1.2-3.43,3.25-1.73,3.69,1-.15,1.7-1,3.89-3.07s7.64-11,7.83-12.77c.22-2.07-1.75-3.39-6.17,5.86-.43,2-2.45,8.31-.68,8.83S60.9,101,60.9,101" fill="none" stroke="#b61733" stroke-miterlimit="10"/>
    </mask>

    <mask id="mask-hand-e"> 
    <path class="mask3" id="mask3-e" d="M60.87,100.53s1.71.46,2.43-.27-.39-1.09-1.21-.37-3,2.32-2,3.33,4.09-1,6.42-2.26" fill="none" stroke="#b61733" stroke-miterlimit="10"/>
    </mask>
    
    <mask id="mask-hand-s"> 
    <path class="mask3" id="mask3-s" d="M71.87,99.89s.13-1.6-1.17-.71-1.06,2.31-.27,2.73.75,2.58-.65,2.44-.16-1.34-.16-1.34a16.72,16.72,0,0,1,3.76-1.77" fill="none" stroke="#b61733" stroke-miterlimit="10"/>
    </mask>

    <mask id="mask-hand-c"> 
    <path class="mask3" id="mask3-c" d="M75.52,100.51s.71-.93.54-1-.66-.48-2.38,1.3-1,2.92.5,2.7,4.8-2.33,4.8-2.33" fill="none" stroke="#b61733" stroke-miterlimit="10"/>
    </mask>

    <mask id="mask-hand-ee"> 
    <path class="mask3" id="mask3-ee" d="M79.22,100.63s1.77.14,2.12-.19.8-1.22-.63-.88-3.27,3.4-2.27,3.81,5.87-2.17,5.87-2.17"  fill="none" stroke="#b61733" stroke-miterlimit="10"/>
    </mask>

    <mask id="mask-hand-n"> 
    <path class="mask3" id="mask3-n" d="M85.71,98.5s-2.14,3.93-1.84,5,1.48-1.12,1.48-1.12,5-5.25,4.92-1.9,1.45,1.91,3.73.5"  fill="none" stroke="#b61733" stroke-miterlimit="10"/>
    </mask>

    <mask id="mask-hand-t"> 
    <g id="mask3-t"> 
    <path class="mask3" id="mask3-t-t" d="M100.3,88.51s-8.48,13.4-7.31,17.85c1.78.64,8.92-5.19,8.92-5.19" fill="none" stroke="#b61733" stroke-miterlimit="10"/>
    <path class="mask3" id="mask3-t-line" d="M101.3,93.36s-7.2.2-8.18.5" fill="none" stroke="#b61733" stroke-miterlimit="10"/>
    </g>
    </mask>

    <mask id="mask-hand-ss"> 
    <path class="mask3" id="mask3-ss" d="M103.75,99.68s.71-.8-.07-.76-2.8,1.57-.92,3.15c1.71,1.45-1.07,2.22-1.18,2.32s-1.21-1.41,2.68-2.58a11.58,11.58,0,0,1,1.7-.64" fill="none" stroke="#b61733" stroke-miterlimit="10"/>
  </g>
  </mask>
</defs>


</svg>
