<svg xmlns="http://www.w3.org/2000/svg" viewBox="0 0 85.85 32.5" class="handwritten2" height="100px">
  
  <g id="makeyourown">
      <path mask="url(#mask-make-m)"  id="make-m" d="M4.52,53.06c-.09.2-.2.45-.32.74s-.25.59-.4.9l-.52,1.17c-.15.36-.29.69-.41,1,.25-.35.54-.73.85-1.15s.64-.8.95-1.17a11.45,11.45,0,0,1,.87-.92,1.27,1.27,0,0,1,.66-.4.39.39,0,0,1,.4.13.66.66,0,0,1,.12.41,3.13,3.13,0,0,1-.18,1c-.12.36-.24.69-.36,1l-.13.38L6,56.35A2.52,2.52,0,0,0,6.3,56c.11-.15.25-.32.4-.53s.4-.51.61-.77A5.14,5.14,0,0,1,7.94,54a1.54,1.54,0,0,1,.6-.34.46.46,0,0,1,.5.18H9a.77.77,0,0,1,.18.33,1.91,1.91,0,0,1,0,.43c0,.11,0,.22,0,.34l0,.36c0,.21,0,.42-.06.61a1.38,1.38,0,0,0,.06.51.49.49,0,0,0,.14.22.46.46,0,0,0,.29.08,2.11,2.11,0,0,0,.79-.22,10.06,10.06,0,0,0,1.31-.75l.14-.08.13-.1.26-.16a.36.36,0,0,1,.22-.07.27.27,0,0,1,.19.1.27.27,0,0,1,0,.21.54.54,0,0,1-.16.21A12.34,12.34,0,0,1,10.57,57a3.26,3.26,0,0,1-1.2.35.73.73,0,0,1-.59-.22,1.1,1.1,0,0,1-.22-.54,2.81,2.81,0,0,1,0-.59c0-.22,0-.43,0-.63a1.82,1.82,0,0,0,0-.32c0-.1,0-.2,0-.3a.62.62,0,0,0-.13-.46.4.4,0,0,0-.2.12L8,54.67,7.76,55l-.16.19-.21.29c-.12.16-.27.35-.44.55a4.7,4.7,0,0,1-.51.57,2.62,2.62,0,0,1-.51.41.52.52,0,0,1-.45.09.31.31,0,0,1-.15-.25,1.55,1.55,0,0,1,0-.41,3.33,3.33,0,0,1,.15-.53c.08-.19.15-.39.22-.6a8.33,8.33,0,0,0,.32-.91c.07-.28.07-.46,0-.55a2.07,2.07,0,0,0-.64.5c-.25.26-.5.56-.77.9s-.52.7-.78,1.07l-.71,1c-.21.3-.38.55-.53.75a1.25,1.25,0,0,1-.32.35c-.13,0-.21,0-.25-.08A.54.54,0,0,1,2,58.06a3,3,0,0,1,.15-.82c.1-.33.23-.68.38-1.06S2.83,55.42,3,55l.48-1,.45-1a.32.32,0,0,1,.15-.19.46.46,0,0,1,.25-.08.2.2,0,0,1,.19.1A.23.23,0,0,1,4.52,53.06Z" transform="translate(-1.52 -40.11)" fill="#1d1d1b"/>
      <path mask="url(#mask-make-ak)" id="make-ak" d="M24.56,53l-.18,0c-.15,0-.37.1-.67.19l-1,.32-1.07.42c-.37.15-.69.3-1,.45-.1.28-.19.56-.27.83s-.16.56-.24.83a2.71,2.71,0,0,0,1.12.63,4.45,4.45,0,0,0,1.4.22A4.82,4.82,0,0,0,24,56.7,3.39,3.39,0,0,0,25,56.25a2.62,2.62,0,0,0,.33-.24l.23-.22.07-.06,0,0c.11-.06.19-.07.24,0s.26.32.2.37l-.31.31a3.7,3.7,0,0,1-1.39.81,5.38,5.38,0,0,1-1.69.27,5.07,5.07,0,0,1-1.47-.2A3.38,3.38,0,0,1,20,56.64c0,.19-.08.38-.12.56s-.09.37-.13.56a.13.13,0,0,1,0,.06s0,0,0,.06l-.06.37a1.54,1.54,0,0,0,0,.37.59.59,0,0,1,0,.21.23.23,0,0,1-.14.15.38.38,0,0,1-.24,0,.26.26,0,0,1-.14-.19,1.11,1.11,0,0,1,0-.23v-.18a2,2,0,0,1,0-.23c0-.1,0-.18,0-.26.1-.57.22-1.16.38-1.76a2.14,2.14,0,0,1-.21-.43,1.62,1.62,0,0,1-.08-.49,1.07,1.07,0,0,1,.07-.39,1.11,1.11,0,0,1,.24-.38,2.46,2.46,0,0,1,.63-.47c.06-.17.11-.32.16-.45s.1-.29.16-.49a22.66,22.66,0,0,1-1.69,2,5.49,5.49,0,0,1-1.46,1.16.72.72,0,0,1-.31.11.77.77,0,0,1-.57,0,.77.77,0,0,1-.34-.33,1.28,1.28,0,0,1-.17-.51,4,4,0,0,1,0-.6l-.7.77-1,1.12-.16.16-.43.42-.53.47a4.45,4.45,0,0,1-.54.38,1.16,1.16,0,0,1-.54.15.69.69,0,0,1-.52-.27,1.16,1.16,0,0,1-.21-.7,2.08,2.08,0,0,1,.1-.64,5.3,5.3,0,0,1,.28-.65c.12-.21.24-.41.36-.59s.25-.35.35-.48a5.63,5.63,0,0,1,1.17-1,2.53,2.53,0,0,1,1.41-.42,2.73,2.73,0,0,1,.65.09.25.25,0,0,1,.19.15.27.27,0,0,1,0,.23s0,0-.11.12a.23.23,0,0,1-.25.07,2,2,0,0,0-1,0,2.9,2.9,0,0,0-.95.5,4.22,4.22,0,0,0-.79.79,5.94,5.94,0,0,0-.57.88,3,3,0,0,0-.11.3,1.64,1.64,0,0,0-.1.38,1.2,1.2,0,0,0,0,.37.32.32,0,0,0,.12.25c.08,0,.19,0,.35-.1l.5-.39.52-.48a3.77,3.77,0,0,0,.36-.37l.06-.05c.18-.19.35-.39.53-.59s.34-.39.51-.6l.9-1,.15-.16a1.07,1.07,0,0,1,.22-.15.44.44,0,0,1,.22,0,.3.3,0,0,1,.2.14.41.41,0,0,1,0,.24l0,.32a1.11,1.11,0,0,0,0,.17.76.76,0,0,0,0,.14V55a1.68,1.68,0,0,0,.07.5.23.23,0,0,0,.32.18l.11,0h0a3,3,0,0,0,.88-.61A14,14,0,0,0,18.89,54c.37-.43.75-.89,1.13-1.4s.76-1,1.12-1.49c.24-.7.5-1.42.77-2.17s.57-1.5.88-2.24.61-1.47.93-2.18.64-1.36,1-2l.23-.42c.1-.18.22-.37.34-.56s.27-.39.42-.58a2.39,2.39,0,0,1,.45-.45,1.1,1.1,0,0,1,.45-.2.49.49,0,0,1,.42.19.85.85,0,0,1,.14.59A3.49,3.49,0,0,1,27,42a9.63,9.63,0,0,1-.39,1c-.15.36-.31.7-.47,1s-.32.63-.46.9l-.34.62c-.15.26-.34.61-.59,1s-.53.89-.85,1.41l-1.05,1.65c-.37.58-.75,1.15-1.15,1.72l-.16.48-.28.81-.28.86c.31-.15.64-.3,1-.44s.68-.26,1-.37.62-.19.9-.26a3.27,3.27,0,0,1,.66-.09.28.28,0,0,1,.19.14.23.23,0,0,1,0,.21A.27.27,0,0,1,24.56,53Zm-4.81,2.38a.11.11,0,0,1,0-.06.08.08,0,0,0,0-.05l0-.09a1.15,1.15,0,0,0,0,.2Zm.06-.2.07-.22,0,0A.31.31,0,0,0,19.81,55.13Zm.18-.32a.22.22,0,0,0-.11.1l.05-.16Zm2.68-6,.81-1.28c.13-.21.3-.5.5-.86s.42-.75.64-1.17l.68-1.31c.22-.45.43-.87.62-1.28s.34-.79.46-1.13a2.6,2.6,0,0,0,.18-.82s0,0,0,0a.52.52,0,0,0-.21.17c-.09.1-.18.22-.28.35l-.27.38a2.17,2.17,0,0,0-.16.25c-.26.44-.53.94-.8,1.49s-.54,1.14-.81,1.75-.53,1.24-.78,1.87-.5,1.26-.72,1.87Z" transform="translate(-1.52 -40.11)" fill="#1d1d1b"/>
      <path mask="url(#mask-make-e)" id="make-e" d="M29,55.35a4.48,4.48,0,0,1-.69.11l-.55,0a2.87,2.87,0,0,0-.31.4,3.13,3.13,0,0,0-.23.37,1.83,1.83,0,0,0-.23.8.58.58,0,0,0,.22.48.86.86,0,0,0,.69.11,4.25,4.25,0,0,0,.54-.18c.21-.08.43-.18.67-.3s.49-.23.74-.37l.75-.39c.41-.23.81-.44,1.19-.63a5.86,5.86,0,0,1,1-.4c.22,0,.33,0,.3.22a.51.51,0,0,1-.23.27,2.12,2.12,0,0,1-.36.19h-.06l-.7.35-.74.41c-.54.3-1.07.58-1.6.85a5.52,5.52,0,0,1-1.55.54,1.34,1.34,0,0,1-1.09-.17,1,1,0,0,1-.35-.81,2.37,2.37,0,0,1,.29-1.09,4,4,0,0,1,.44-.67c.19-.23.4-.45.62-.67a8.06,8.06,0,0,1,.72-.59,4,4,0,0,1,.74-.42,2.26,2.26,0,0,1,.44-.08,1.07,1.07,0,0,1,.41.07.67.67,0,0,1,.28.21.53.53,0,0,1,.06.36,1,1,0,0,1-.51.64A3,3,0,0,1,29,55.35Zm-.7-.47h.11l-.09.07Zm.95-.51a4.29,4.29,0,0,0-.84.51,6.42,6.42,0,0,0,.8-.14.86.86,0,0,0,.55-.29c0-.06-.06-.1-.18-.11A.89.89,0,0,0,29.27,54.37Z" transform="translate(-1.52 -40.11)" fill="#1d1d1b"/>
      <path mask="url(#mask-make-y)" id="your-y" d="M37.57,53.88a.59.59,0,0,0,0,.08.41.41,0,0,0-.05.09l0,.07s0,0,0,0c-.14.25-.29.56-.47.93s-.34.73-.49,1.09a8.27,8.27,0,0,0-.32,1c-.07.28-.07.46,0,.55a.88.88,0,0,0,.59-.06,2.42,2.42,0,0,0,.64-.36,5.69,5.69,0,0,0,.61-.51c.2-.19.38-.36.53-.53l.11-.11.49-.5c.13-.13.27-.27.43-.41a4.32,4.32,0,0,1,.46-.35,2.17,2.17,0,0,1,.41-.2.35.35,0,0,1,.32.06,1.6,1.6,0,0,1,0,.8,14.73,14.73,0,0,1-.31,1.45c-.09.38-.19.78-.29,1.19s-.21.82-.32,1.2A12,12,0,0,1,42.34,59h.34c.21,0,.27.12.2.31a.31.31,0,0,1-.15.19.44.44,0,0,1-.24.07h-.2a10.42,10.42,0,0,0-1.33.12,9.67,9.67,0,0,0-1.32.28l-.43,1.44-.13.39c-.15.47-.36,1.06-.61,1.77s-.55,1.45-.9,2.24-.74,1.57-1.18,2.36A14.53,14.53,0,0,1,35,70.24a7.23,7.23,0,0,1-1.67,1.53,3.41,3.41,0,0,1-1.89.58,3.29,3.29,0,0,1-.72-.08,1.49,1.49,0,0,1-1-.66,2.32,2.32,0,0,1-.29-1.18,4.62,4.62,0,0,1,.11-1,7.25,7.25,0,0,1,.29-1c.12-.34.26-.66.41-1s.3-.62.45-.89a14.62,14.62,0,0,1,1.67-2.3,16.61,16.61,0,0,1,2.09-2,18.61,18.61,0,0,1,2.35-1.63,15.87,15.87,0,0,1,2.44-1.16c.06-.21.13-.45.19-.72l.21-.8.21-.79.17-.71a6.88,6.88,0,0,0,.14-.68c0-.21.07-.38.09-.53a2,2,0,0,0-.33.28c-.12.12-.24.24-.37.39l-.22.21c-.25.27-.52.54-.82.83a8.72,8.72,0,0,1-.91.76,3.65,3.65,0,0,1-.92.47,1.2,1.2,0,0,1-.84,0q-.27-.09-.27-.54a2.64,2.64,0,0,1,.15-.79,8,8,0,0,1,.35-1c.13-.32.28-.64.44-1s.29-.6.41-.84l.22-.45a.37.37,0,0,1,.41-.25.22.22,0,0,1,.19.11.25.25,0,0,1,0,.23ZM39,60.12a10.31,10.31,0,0,0-2.14,1,16.39,16.39,0,0,0-2.08,1.51,20.16,20.16,0,0,0-1.88,1.82,18.2,18.2,0,0,0-1.55,2c-.15.25-.31.54-.47.86a9,9,0,0,0-.44,1,8.48,8.48,0,0,0-.33,1,4.1,4.1,0,0,0-.12.94,1.78,1.78,0,0,0,.22.91,1.2,1.2,0,0,0,.77.53,2.12,2.12,0,0,0,.57.07,2.85,2.85,0,0,0,1.73-.61,7.87,7.87,0,0,0,1.56-1.59,17.15,17.15,0,0,0,1.35-2.2c.41-.81.79-1.62,1.12-2.43s.63-1.57.87-2.29.45-1.29.59-1.75Z" transform="translate(-1.52 -40.11)" fill="#1d1d1b"/>
      <path mask="url(#mask-make-o)" id="your-o" d="M43.13,53.74a.23.23,0,0,1,.11.17.26.26,0,0,1-.07.21.74.74,0,0,1,.16-.12,2.71,2.71,0,0,1,.63-.35,2,2,0,0,1,.69-.14.68.68,0,0,1,.5.18v0a.83.83,0,0,1,.22.63,2.8,2.8,0,0,1-.11.72,5.16,5.16,0,0,1-.28.78,7.33,7.33,0,0,1-.38.74,6,6,0,0,1-.39.59,3.46,3.46,0,0,1-1,.83,1.88,1.88,0,0,1-.95.3.87.87,0,0,1-.6-.2,1.08,1.08,0,0,1-.32-.61,2.17,2.17,0,0,1,0-.84,5,5,0,0,1,.26-.93,6.21,6.21,0,0,1,.45-.94,9,9,0,0,1,.57-.85.44.44,0,0,1,.23-.15A.41.41,0,0,1,43.13,53.74ZM42,56.33a1.68,1.68,0,0,0-.06.27,2.46,2.46,0,0,0,0,.28,1.32,1.32,0,0,0,.09.48.48.48,0,0,0,.45.31,1.06,1.06,0,0,0,.51-.15,2,2,0,0,0,.5-.37,4.47,4.47,0,0,0,.51-.64,6.21,6.21,0,0,0,.42-.81,5.26,5.26,0,0,0,.25-.81,1.48,1.48,0,0,0,0-.66.23.23,0,0,0-.19-.12l-.3,0a1.21,1.21,0,0,0-.33.12,1.22,1.22,0,0,0-.28.17,4.18,4.18,0,0,0-.86.91c-.27.36-.5.7-.7,1Z" transform="translate(-1.52 -40.11)" fill="#1d1d1b"/>
      <path mask="url(#mask-make-u)" id="your-u" d="M47.65,54.46h0a5.23,5.23,0,0,0-.46.73,7,7,0,0,0-.41.94,3.61,3.61,0,0,0-.22.89.69.69,0,0,0,.14.59c.1.11.27.11.49,0a4.13,4.13,0,0,0,.71-.47c.25-.21.5-.43.75-.67l.58-.59.31-.31.29-.27a3.65,3.65,0,0,1,.36-.31,4,4,0,0,1,.7-.41c.23-.09.39-.06.49.09a.63.63,0,0,1,0,.23,2.47,2.47,0,0,1,0,.35s0,0,0,0a.08.08,0,0,0,0,0c0,.17-.05.33-.08.48s-.06.32-.08.47-.07.33-.09.48a2,2,0,0,0,0,.39c0,.25.1.37.29.37a2.63,2.63,0,0,0,1-.43q.75-.42,2.19-1.44l.12-.09.17-.12a.44.44,0,0,1,.24-.07.19.19,0,0,1,.17.09.2.2,0,0,1,0,.21.55.55,0,0,1-.18.22l-.6.41c-.28.21-.58.42-.89.63s-.61.41-.91.59-.58.31-.84.43a1.91,1.91,0,0,1-.7.17.65.65,0,0,1-.57-.33,1.73,1.73,0,0,1-.15-1,3.77,3.77,0,0,1,.06-.39c0-.15.06-.3.1-.45s.05-.26.07-.37,0-.22.05-.32l0,0a4,4,0,0,0-.54.42l-.67.62c-.27.28-.57.56-.87.83a8.62,8.62,0,0,1-.89.71,3.57,3.57,0,0,1-.81.43.71.71,0,0,1-.67-.08.91.91,0,0,1-.34-.81,3,3,0,0,1,.12-.79,5.87,5.87,0,0,1,.3-.86,9,9,0,0,1,.42-.82,7.78,7.78,0,0,1,.42-.66.55.55,0,0,1,.22-.14.32.32,0,0,1,.23,0c.11.06.13.17.07.32Z" transform="translate(-1.52 -40.11)" fill="#1d1d1b"/>
      <path mask="url(#mask-make-r)" id="your-r" d="M56.15,53.53l-.43,1.1c-.12.33-.26.71-.4,1.13a16.62,16.62,0,0,1,1.39-1.67,10.35,10.35,0,0,1,1.56-1.37,4.3,4.3,0,0,1,.69-.41,1.35,1.35,0,0,1,.57-.15.52.52,0,0,1,.41.18.79.79,0,0,1,.11.59.49.49,0,0,1,0,.12.25.25,0,0,0,0,.12.43.43,0,0,1-.15.21.6.6,0,0,1-.21.13.26.26,0,0,1-.2-.07.41.41,0,0,1-.05-.09v-.09c0-.3,0-.45-.18-.44a1.49,1.49,0,0,0-.71.33,9.23,9.23,0,0,0-1.06.91,13.55,13.55,0,0,0-1,1.12c-.33.4-.63.8-.92,1.22a11.75,11.75,0,0,0-.74,1.18,2.39,2.39,0,0,0-.13.21c0,.08-.07.15-.1.22a.38.38,0,0,1-.42.25c-.17,0-.22-.13-.16-.32l0-.06q.4-1.23.87-2.52t.93-2.52a.37.37,0,0,1,.15-.19.34.34,0,0,1,.24-.09.19.19,0,0,1,.19.09.3.3,0,0,1,0,.23Z" transform="translate(-1.52 -40.11)" fill="#1d1d1b"/>
      <path mask="url(#mask-make-oo)" id="own-o" d="M64.34,53.74a.26.26,0,0,1,.11.17.27.27,0,0,1-.08.21.62.62,0,0,1,.17-.12,2.71,2.71,0,0,1,.63-.35,1.92,1.92,0,0,1,.68-.14.67.67,0,0,1,.5.18v0a.79.79,0,0,1,.22.63,2.8,2.8,0,0,1-.11.72,4.26,4.26,0,0,1-.28.78,5.72,5.72,0,0,1-.38.74,4.68,4.68,0,0,1-.38.59,3.49,3.49,0,0,1-1,.83,1.85,1.85,0,0,1-.95.3.83.83,0,0,1-.59-.2,1,1,0,0,1-.33-.61,2.38,2.38,0,0,1,0-.84,5,5,0,0,1,.26-.93,6.21,6.21,0,0,1,.45-.94,7.47,7.47,0,0,1,.58-.85.42.42,0,0,1,.22-.15A.44.44,0,0,1,64.34,53.74Zm-1.1,2.59c0,.1,0,.19-.05.27a1.27,1.27,0,0,0,0,.28,1.32,1.32,0,0,0,.09.48.46.46,0,0,0,.45.31,1.05,1.05,0,0,0,.5-.15,2.2,2.2,0,0,0,.51-.37,5.3,5.3,0,0,0,.5-.64,4.45,4.45,0,0,0,.42-.81,4.35,4.35,0,0,0,.25-.81,1.34,1.34,0,0,0,0-.66.22.22,0,0,0-.19-.12l-.29,0a1.26,1.26,0,0,0-.34.12,1.14,1.14,0,0,0-.27.17,4.21,4.21,0,0,0-.87.91c-.26.36-.5.7-.7,1Z" transform="translate(-1.52 -40.11)" fill="#1d1d1b"/>
      <path mask="url(#mask-make-w)" id="own-w" d="M72.69,54.16c0,.11-.09.27-.17.48s-.16.46-.25.73-.18.56-.26.86-.16.58-.23.83a4.21,4.21,0,0,0-.13.7.69.69,0,0,0,0,.43,2.82,2.82,0,0,0,.49-.42c.2-.21.42-.47.65-.76l.69-.94c.23-.33.45-.65.64-1a1,1,0,0,1-.51,0c-.13,0-.18-.14-.16-.31a1.08,1.08,0,0,1,.29-.48,4.71,4.71,0,0,1,.6-.58,2.5,2.5,0,0,1,.64-.39c.21-.08.34,0,.42.12s0,.45-.24.91l.53-.1a2.37,2.37,0,0,1,.52-.06,1,1,0,0,1,.86.35l.07.12a.27.27,0,0,1,0,.23.41.41,0,0,1-.18.19.27.27,0,0,1-.24.05.22.22,0,0,1-.15-.13.5.5,0,0,0-.23-.16,1.23,1.23,0,0,0-.35-.05,3.15,3.15,0,0,0-.52.05l-.47.09-.16,0c-.22.36-.47.74-.75,1.16s-.57.8-.87,1.17-.58.68-.85,1a2.32,2.32,0,0,1-.66.52c-.24.08-.42.06-.52-.07a.88.88,0,0,1-.17-.6,5,5,0,0,1,.1-.87c.07-.32.15-.65.25-1-.26.25-.56.52-.9.8a8.29,8.29,0,0,1-1.08.74,4,4,0,0,1-1.06.46,1,1,0,0,1-.83-.08.92.92,0,0,1-.35-.81,3.11,3.11,0,0,1,.12-.8,6,6,0,0,1,.31-.87,7,7,0,0,1,.41-.82,7.78,7.78,0,0,1,.42-.66.43.43,0,0,1,.23-.14.41.41,0,0,1,.22,0c.12.08.12.22,0,.41a6.37,6.37,0,0,0-.46.73,7,7,0,0,0-.41.94,4.19,4.19,0,0,0-.22.88.7.7,0,0,0,.14.59c.12.12.31.13.56,0a3.82,3.82,0,0,0,.8-.38,7.31,7.31,0,0,0,.81-.56c.26-.2.45-.36.58-.48a6.33,6.33,0,0,0,.68-.71,7.4,7.4,0,0,0,.53-.8s0,0,.05-.08h0l.18-.52a.33.33,0,0,1,.15-.2.55.55,0,0,1,.24-.07C72.68,53.85,72.75,54,72.69,54.16Zm1.53.38s0,0,0,0Zm0,0h.13l.16,0a2.37,2.37,0,0,0,.23-.45l0,0-.26.26A1.76,1.76,0,0,1,74.22,54.54Zm.29,0h0s0,0,0,0Z" transform="translate(-1.52 -40.11)" fill="#1d1d1b"/>
      <path mask="url(#mask-make-n)" id="own-n" d="M86.77,55.45a.31.31,0,0,1,0,.21.6.6,0,0,1-.14.21l-.76.56a7.7,7.7,0,0,1-.77.5,5.9,5.9,0,0,1-.72.35,1.76,1.76,0,0,1-.63.14.85.85,0,0,1-.66-.3,1.69,1.69,0,0,1-.33-1v-.4c0-.17,0-.36,0-.57a3.48,3.48,0,0,0,0-.58,1.19,1.19,0,0,0-.15-.44.28.28,0,0,0-.27-.17,1.85,1.85,0,0,0-.88.26,6.67,6.67,0,0,0-1,.66,11.77,11.77,0,0,0-1,.9c-.33.33-.63.65-.89,1,0,0,0,.08-.14.22l-.26.34c-.1.14-.2.3-.32.46a4.22,4.22,0,0,1-.34.46,1.37,1.37,0,0,1-.35.3.4.4,0,0,1-.32.07.54.54,0,0,1-.36-.27,1.06,1.06,0,0,1-.11-.5,3.13,3.13,0,0,1,.13-.84,8.58,8.58,0,0,1,.32-1c.13-.33.27-.67.42-1s.29-.63.43-.91l.2-.41c.07-.13.12-.25.16-.34a.58.58,0,0,1,.17-.19.32.32,0,0,1,.22-.1.22.22,0,0,1,.2.09.23.23,0,0,1,0,.23c0,.06-.06.14-.11.25l-.16.35c-.15.3-.31.65-.5,1.06s-.37.81-.53,1.21a7.78,7.78,0,0,0-.33,1.06.71.71,0,0,0,.06.63l.12-.17.12-.14.49-.69a7.22,7.22,0,0,1,.66-.78c.16-.17.34-.37.56-.58s.45-.44.7-.66.52-.43.79-.64.55-.38.81-.53a2.93,2.93,0,0,1,.77-.32,1.29,1.29,0,0,1,.67,0,.73.73,0,0,1,.39.26,1.63,1.63,0,0,1,.21.44,3.15,3.15,0,0,1,.08.56c0,.21,0,.41,0,.61v.58a2.21,2.21,0,0,0,.07.48.72.72,0,0,0,.17.35.45.45,0,0,0,.33.12l.24,0a1.44,1.44,0,0,0,.32-.12,5.38,5.38,0,0,0,.88-.5l.87-.62.1-.09a.68.68,0,0,1,.24-.07A.2.2,0,0,1,86.77,55.45Z" transform="translate(-1.52 -40.11)" fill="#1d1d1b"/>
  </g>
 
 
 <defs>
  <g id="make-masks">

    <mask id="mask-make-m"> 
    <path class="mask2" id="mask2-m" d="M4.33,52.73,2,58.41s3-4.83,4.21-5.19-.72,3.84-.72,3.84a21.69,21.69,0,0,1,2.66-3c.76-.51,1.13.09.7,2.31-.39,2,3.82-1,3.82-1" fill="none" stroke="#b3182f" stroke-miterlimit="10"/>
    </mask>

    <mask id="mask-make-ak"> 
    <g id="mask2-ak"> 
    <path class="mask2" id="mask2-ak-ak" d="M16,54.11s-2.44-1.75-4.25,3c.29,1.13.08,1.57,4.67-3,0,0-.77,3.13,1.32,1.46s9.11-12.17,9.07-14-1-1.12-2.47,2.35-4.66,12-5,15"  fill="none" stroke="#b3182f" stroke-miterlimit="10"/>
    <path class="mask2" id="mask2-ak-line" d="M25.26,52.73s-4.8.23-6,2.6c-.94,1.81,5.36,2.45,6.87.24" fill="none" stroke="#b3182f" stroke-miterlimit="10"/>
    </g>
    </mask>
  

    <mask id="mask-make-e"> 
    <path class="mask2" id="mask2-e" d="M27.53,55.23s2.07.11,2.45-.9-2.72.56-3.22,1.82S26,60,33.08,55.33" fill="none" stroke="#b3182f" stroke-miterlimit="10"/>
    </mask>

    <mask id="mask-make-y"> 
    <path class="mask2" id="mask2-y" d="M37.61,53.28S34.74,57.93,36.14,58s4.62-3.32,4.62-3.32-4.17,18.17-9,17.42-.41-6-.41-6,4.44-7,11.57-6.83" fill="none" stroke="#b3182f" stroke-miterlimit="10"/>
    </mask>

    <mask id="mask-make-o"> 
    <path class="mask2" id="mask2-o" d="M42.59,55s1.52-1.59,2.14-1.22,0,3.4-1.69,3.94c-1.89.6-1.5-1.08.25-4.16"  fill="none" stroke="#b3182f" stroke-miterlimit="10"/>
    </mask>

    <mask id="mask-make-u"> 
    <path class="mask2" id="mask2-u" d="M47.67,54.05S45.26,57.4,46.51,58s3.67-3.06,4.76-3.44-.35.66-.35.66-1.55,5.31,4.15.44" fill="none" stroke="#b3182f" stroke-miterlimit="10"/>
    </mask>

    <mask id="mask-make-r"> 
    <path class="mask2" id="mask2-r" d="M56.34,52.16,54,58.4s6.26-9,5.71-4.89" fill="none" stroke="#b3182f" stroke-miterlimit="10"/>
    </mask>

    <mask id="mask-make-oo"> 
    <path class="mask2" id="mask2-oo" d="M63.7,55s1.65-1.68,2.31-1.28,0,3.58-1.82,4.14c-2,.64-1.62-1.13.26-4.38" fill="none" stroke="#b3182f" stroke-miterlimit="10"/>
    </mask>

    <mask id="mask-make-w"> 
    <path class="mask2" id="mask2-w" d="M68.87,54.05s-2.39,4.11-1,4,4.53-2.57,4.65-4.17-1.64,4.93-1,4.76,4-4.85,3.93-5-.53-.19-1.56.95,2.16,0,2.16,0,.85,0,.76.65" fill="none" stroke="#b3182f" stroke-miterlimit="10"/>
    </mask>

    <mask id="mask-make-n"> 
    <path class="mask2" id="mask2-n" d="M78.5,53.06s-2.4,3.59-1.68,5.24c.8-.77,4-4.85,5.44-4.78s.33,3.51,1.07,3.54a7.36,7.36,0,0,0,3.44-1.61l.12-.41" fill="none" stroke="#b3182f" stroke-miterlimit="10"/>
  </mask>
  </g>

<defs>
</svg>
