   <svg xmlns="http://www.w3.org/2000/svg" viewBox="0 0 84.39 30.46" class="handwritten" height="100px">
    
       <g id="word">
       
           <path mask="url(#mask-scented-s)" id="scented-s" d="M6.54,14.82c-.2,0-.3,0-.33-.14s-.13-.25-.27-.2a1.31,1.31,0,0,0-.49.34,2.72,2.72,0,0,0-.37.39,1.86,1.86,0,0,0-.23.44,1.09,1.09,0,0,0-.07.42.62.62,0,0,0,.14.38,2.76,2.76,0,0,0,.46.44l.15.13L6,16.77l.85-.34.85-.29.13,0,.15,0a.18.18,0,0,1,.13,0,.15.15,0,0,1,0,.15.33.33,0,0,1-.09.22.38.38,0,0,1-.19.13l-.66.22c-.21.07-.44.15-.66.24l-.39.16a1.52,1.52,0,0,0-.34.15,1.27,1.27,0,0,1-.09,1.15,2,2,0,0,1-.69.8,1.38,1.38,0,0,1-.74.26.87.87,0,0,1-.56-.18.61.61,0,0,1-.22-.49,1.27,1.27,0,0,1,.31-.73,4,4,0,0,1,1.07-.88l-.17-.12A2.26,2.26,0,0,1,4.49,17a1.12,1.12,0,0,1-.21-.29,1,1,0,0,1-.09-.61,2.44,2.44,0,0,1,.22-.66,3.72,3.72,0,0,1,1-1.18,1.42,1.42,0,0,1,.79-.32c.3,0,.49.17.58.52a.3.3,0,0,1-.13.31v0ZM5.16,18.6a.9.9,0,0,0,.21-.51.61.61,0,0,0-.11-.39,3.09,3.09,0,0,0-.86.64.8.8,0,0,0-.24.47.2.2,0,0,0,.11.2.37.37,0,0,0,.26,0,.75.75,0,0,0,.32-.12A1,1,0,0,0,5.16,18.6Zm.14-.91h0a0,0,0,0,1,0,0Z" transform="translate(-3.56 -1.66)" fill="#1d1d1b"/>
           <path mask="url(#mask-scented-c)" id="scented-c" d="M10.05,15.07a.15.15,0,0,0,.06-.09l.05-.1a1,1,0,0,0-.37.15,3.89,3.89,0,0,0-.46.29l-.44.35L8.58,16a5.17,5.17,0,0,0-.67.8,1.57,1.57,0,0,0-.29.84.72.72,0,0,0,.08.32.63.63,0,0,0,.26.25.81.81,0,0,0,.46.12,2.55,2.55,0,0,0,.89-.19,9.57,9.57,0,0,0,1.08-.45c.36-.18.73-.38,1.08-.6l1-.58.41-.23.17-.11a.46.46,0,0,1,.23,0,.16.16,0,0,1,.14.12.26.26,0,0,1,0,.21.51.51,0,0,1-.2.18l-.38.21-.42.25-1,.58c-.35.2-.7.39-1.05.55a8,8,0,0,1-1,.42,3.82,3.82,0,0,1-.92.2,1.4,1.4,0,0,1-1-.27,1.05,1.05,0,0,1-.34-.82,2,2,0,0,1,.32-1A3.16,3.16,0,0,1,7.9,16a7.6,7.6,0,0,1,.77-.72,5.83,5.83,0,0,1,.85-.61,2.48,2.48,0,0,1,.77-.32.6.6,0,0,1,.33.05.29.29,0,0,1,.11.2.57.57,0,0,1,0,.3,1.58,1.58,0,0,1-.16.35.35.35,0,0,1-.17.14.5.5,0,0,1-.24,0C10,15.38,9.94,15.26,10.05,15.07Z" transform="translate(-3.56 -1.66)" fill="#1d1d1b"/>
           <path mask="url(#mask-scented-e)" id="scented-e" d="M14.74,16.06a5.19,5.19,0,0,1-.65.11l-.52,0c-.11.13-.21.25-.3.38s-.15.24-.21.35a1.75,1.75,0,0,0-.22.75.56.56,0,0,0,.21.46.84.84,0,0,0,.66.1,3.36,3.36,0,0,0,.51-.17l.63-.28c.22-.11.46-.22.69-.35l.72-.37c.38-.22.76-.42,1.12-.6a5.56,5.56,0,0,1,.9-.37c.21,0,.31,0,.29.2a.48.48,0,0,1-.22.26l-.34.19h0s0,0,0,0l-.67.33c-.22.12-.46.25-.69.39-.51.28-1,.55-1.52.8a4.53,4.53,0,0,1-1.46.5,1.25,1.25,0,0,1-1-.15.92.92,0,0,1-.33-.76,2.17,2.17,0,0,1,.28-1,3.94,3.94,0,0,1,.41-.63,8.51,8.51,0,0,1,.59-.63,6.13,6.13,0,0,1,.68-.56,3.5,3.5,0,0,1,.69-.39,2.07,2.07,0,0,1,.42-.08,1.12,1.12,0,0,1,.38.06.64.64,0,0,1,.27.21.47.47,0,0,1,.06.34.93.93,0,0,1-.49.6A2.79,2.79,0,0,1,14.74,16.06Zm-.66-.45h.1l-.08.07Zm.9-.47a4.26,4.26,0,0,0-.8.47,5.66,5.66,0,0,0,.76-.12.86.86,0,0,0,.52-.28c0-.06-.06-.09-.17-.11A.62.62,0,0,0,15,15.14Z" transform="translate(-3.56 -1.66)" fill="#1d1d1b"/>
           <path mask="url(#mask-scented-n)" id="scented-n" d="M27.37,16.16a.25.25,0,0,1,0,.19.53.53,0,0,1-.13.2c-.23.18-.47.36-.72.53a5.89,5.89,0,0,1-.72.47,4.21,4.21,0,0,1-.68.33,1.54,1.54,0,0,1-.59.13.81.81,0,0,1-.63-.28,1.55,1.55,0,0,1-.31-.93v-.37c0-.16,0-.34,0-.54a3.21,3.21,0,0,0-.05-.55,1.24,1.24,0,0,0-.13-.41.31.31,0,0,0-.27-.17,1.85,1.85,0,0,0-.82.25,5.57,5.57,0,0,0-.95.63,10.64,10.64,0,0,0-1,.85c-.31.31-.59.61-.84.89t-.12.21l-.25.32-.3.44a3.83,3.83,0,0,1-.32.42,1.23,1.23,0,0,1-.33.29.42.42,0,0,1-.31.07.53.53,0,0,1-.34-.25,1,1,0,0,1-.1-.48,3.1,3.1,0,0,1,.12-.79q.12-.45.3-.93c.13-.31.26-.63.4-.94s.28-.6.4-.86.14-.26.2-.39a2.61,2.61,0,0,0,.14-.32.7.7,0,0,1,.17-.18.32.32,0,0,1,.21-.09.19.19,0,0,1,.18.08.21.21,0,0,1,0,.22,1.33,1.33,0,0,1-.1.23q-.06.15-.15.33c-.14.29-.3.62-.48,1s-.34.76-.49,1.14a5.59,5.59,0,0,0-.31,1c-.07.29-.05.49.06.59a.92.92,0,0,1,.11-.15l.11-.14.46-.65a9,9,0,0,1,.62-.74l.53-.54c.21-.21.43-.41.66-.62s.49-.41.75-.61a7.7,7.7,0,0,1,.77-.5,3.07,3.07,0,0,1,.72-.3,1.28,1.28,0,0,1,.64,0,.67.67,0,0,1,.36.25,1.31,1.31,0,0,1,.2.41,2.19,2.19,0,0,1,.07.53c0,.19,0,.39,0,.58s0,.37,0,.54a3,3,0,0,0,.06.46.69.69,0,0,0,.16.32.41.41,0,0,0,.32.12l.22,0a1.6,1.6,0,0,0,.3-.11,5.65,5.65,0,0,0,.83-.48c.3-.2.57-.4.82-.58l.1-.08a.48.48,0,0,1,.22-.07C27.27,16.08,27.34,16.1,27.37,16.16Z" transform="translate(-3.56 -1.66)" fill="#1d1d1b"/>
           <path mask="url(#mask-scented-t)" id="scented-t" d="M35.05,16.16a.16.16,0,0,1,0,.19.69.69,0,0,1-.13.2c-.72.55-1.47,1.11-2.26,1.68s-1.57,1.1-2.32,1.6a.18.18,0,0,1-.07.05l-.08.05-.87.56c-.35.22-.7.42-1.07.61a7.08,7.08,0,0,1-1,.47,1.27,1.27,0,0,1-.78.09.6.6,0,0,1-.42-.37,1.77,1.77,0,0,1-.13-.75,5.94,5.94,0,0,1,.19-1.38,18,18,0,0,1,.5-1.76c.21-.64.45-1.3.73-2s.57-1.39.88-2.1.62-1.39.94-2.06.63-1.31.93-1.91c-.55,0-1.1.05-1.64.09A12.26,12.26,0,0,0,27,9.6a.32.32,0,0,1-.18-.06.15.15,0,0,1-.08-.16.39.39,0,0,1,.12-.2.57.57,0,0,1,.21-.13,11.81,11.81,0,0,1,1.53-.19c.57,0,1.16-.07,1.76-.09.3-.58.57-1.11.82-1.58l.56-1,.14-.26c.12-.23.27-.48.44-.74a4.28,4.28,0,0,1,.64-.74c.16-.1.28-.07.34.07a.24.24,0,0,1,0,.2.67.67,0,0,1-.14.19c-.15.2-.31.43-.48.7s-.36.58-.56.92-.38.7-.58,1.08L30.9,8.75H31l.84,0H33.9a.19.19,0,0,1,.18.08.21.21,0,0,1,0,.22.3.3,0,0,1-.14.19.41.41,0,0,1-.23.07h-.8c-.27,0-.54,0-.8,0h-.62l-.7,0h-.16L30,10.59l-.57,1.23-.5,1.11c-.14.34-.27.63-.37.87s-.18.43-.31.74l-.44,1.08c-.16.4-.32.83-.47,1.28s-.31.89-.44,1.32-.23.85-.32,1.23a5.18,5.18,0,0,0-.13,1c0,.37.1.61.31.7a1.86,1.86,0,0,0,.83-.26c.4-.19.85-.45,1.37-.76s1.06-.68,1.65-1.07l1.67-1.16c.53-.37,1-.72,1.43-1l.93-.7a.38.38,0,0,1,.22-.06C35,16.09,35,16.11,35.05,16.16Z" transform="translate(-3.56 -1.66)" fill="#1d1d1b"/>
           <path mask="url(#mask-scented-ee)" id="scented-e-2" data-name="scented-e" d="M36.41,16.06a5.52,5.52,0,0,1-.65.11l-.52,0a3.32,3.32,0,0,0-.3.38c-.08.12-.15.24-.21.35a1.75,1.75,0,0,0-.22.75.56.56,0,0,0,.21.46.82.82,0,0,0,.65.1,2.76,2.76,0,0,0,.51-.17c.2-.08.41-.17.63-.28l.7-.35.71-.37c.39-.22.76-.42,1.12-.6a6,6,0,0,1,.91-.37c.21,0,.31,0,.28.2a.44.44,0,0,1-.22.26,2.37,2.37,0,0,1-.34.19h-.05l-.66.33-.7.39c-.51.28-1,.55-1.51.8a4.61,4.61,0,0,1-1.46.5,1.28,1.28,0,0,1-1-.15,1,1,0,0,1-.32-.76,2.27,2.27,0,0,1,.27-1,3.44,3.44,0,0,1,.42-.63,8.31,8.31,0,0,1,.58-.63,8.77,8.77,0,0,1,.68-.56,3.3,3.3,0,0,1,.7-.39,2.07,2.07,0,0,1,.42-.08,1.12,1.12,0,0,1,.38.06.61.61,0,0,1,.26.21.42.42,0,0,1,.06.34.91.91,0,0,1-.48.6A3,3,0,0,1,36.41,16.06Zm-.66-.45h.1l-.08.07Zm.9-.47a4,4,0,0,0-.8.47,5.66,5.66,0,0,0,.76-.12.83.83,0,0,0,.51-.28c0-.06,0-.09-.17-.11A.59.59,0,0,0,36.65,15.14Z" transform="translate(-3.56 -1.66)" fill="#1d1d1b"/>
           <path mask="url(#mask-scented-d)" id="scented-d" d="M44,15.26a7.61,7.61,0,0,0,.11,1.07,1.68,1.68,0,0,0,.33.81.83.83,0,0,0,.68.31,1.74,1.74,0,0,0,.57-.11,3.72,3.72,0,0,0,.61-.29,4.93,4.93,0,0,0,.61-.4l.57-.42h0l.19-.17c.08,0,.18,0,.31.09a.4.4,0,0,1-.12.39c-.39.3-.82.61-1.29.91a3.68,3.68,0,0,1-1.4.55,1.56,1.56,0,0,1-.77-.09,1.32,1.32,0,0,1-.53-.44,2,2,0,0,1-.32-.69,4.15,4.15,0,0,1-.13-.89A20.27,20.27,0,0,1,41.27,18a5.85,5.85,0,0,1-.81.52,1.64,1.64,0,0,1-.8.23.71.71,0,0,1-.65-.36.81.81,0,0,1-.09-.58,2.24,2.24,0,0,1,.26-.7,5.29,5.29,0,0,1,.52-.74q.31-.37.66-.72c.23-.23.47-.44.7-.63a5.5,5.5,0,0,1,.62-.45,4.77,4.77,0,0,1,1-.46,1.15,1.15,0,0,1,.84,0,17.18,17.18,0,0,1,.37-2c.16-.64.3-1.15.43-1.55s.26-.81.45-1.33.42-1.09.68-1.68.55-1.2.86-1.81a15.4,15.4,0,0,1,1-1.69,9.09,9.09,0,0,1,1.11-1.36A3.5,3.5,0,0,1,49.6,2a1.84,1.84,0,0,1,.63-.12.79.79,0,0,1,.72.34,1.36,1.36,0,0,1,.19.88,5.35,5.35,0,0,1-.36,1.42A18.24,18.24,0,0,1,50,6.33c-.33.66-.72,1.36-1.16,2.1s-.91,1.47-1.41,2.22-1,1.48-1.54,2.2-1,1.4-1.55,2Zm-.76-.53a.62.62,0,0,0-.68-.05,3.79,3.79,0,0,0-.89.52,8.83,8.83,0,0,0-.87.75,7.68,7.68,0,0,0-.62.67,4.16,4.16,0,0,0-.45.62,1.32,1.32,0,0,0-.22.63c0,.17.11.29.31.36a.87.87,0,0,0,.68-.21,8.29,8.29,0,0,0,.93-.74c.33-.31.67-.65,1-1s.68-.74,1-1.08V15a.72.72,0,0,1,0-.17.23.23,0,0,1-.22-.09Zm1.22-.8c.33-.42.7-.92,1.12-1.5s.85-1.21,1.29-1.86.88-1.34,1.3-2,.81-1.38,1.16-2a19.2,19.2,0,0,0,.85-1.84,5.26,5.26,0,0,0,.38-1.46.79.79,0,0,0-.19-.64.64.64,0,0,0-.69-.08,3,3,0,0,0-.86.63,7.4,7.4,0,0,0-.85,1,11.66,11.66,0,0,0-.8,1.25c-.26.44-.49.89-.71,1.33S46,7.57,45.86,8l-.43,1c-.12.34-.25.73-.4,1.17s-.27.91-.4,1.39-.25,1-.36,1.47A13.46,13.46,0,0,0,44,14.42Z" transform="translate(-3.56 -1.66)" fill="#1d1d1b"/>
           <path mask="url(#mask-scented-f)" id="for-f" d="M52.47,15a6.15,6.15,0,0,0,.78-.77c.3-.32.61-.7.94-1.11s.68-.86,1-1.34.7-1,1-1.47c.3-.66.62-1.33,1-2s.65-1.35,1-2c.07-.12.16-.3.27-.53s.24-.49.39-.76l.46-.84a8.26,8.26,0,0,1,.49-.79,5.83,5.83,0,0,1,.45-.6.87.87,0,0,1,.39-.3c.21-.06.34,0,.37.13a1.19,1.19,0,0,1,0,.52,5.33,5.33,0,0,1-.23.63c-.1.21-.16.35-.2.42-.17.33-.38.73-.64,1.2s-.56,1-.88,1.52S58.35,8,58,8.59l-1.14,1.74c-.18.38-.35.73-.49,1s-.24.55-.29.69-.21.46-.31.68l-.29.68-.82,1.92a.16.16,0,0,1,0,.1.35.35,0,0,0-.06.09l1.28-1L57,13.64l1-.77.68-.57.54-.48c.22-.19.43-.39.65-.61s.41-.43.6-.65a4.14,4.14,0,0,0,.45-.62l.1-.19v0a.39.39,0,0,1,.34-.31.24.24,0,0,1,.21.06.19.19,0,0,1,0,.21l-.1.24a3.57,3.57,0,0,1-.44.66c-.2.24-.43.48-.67.73s-.49.48-.73.7l-.64.58v0q-.35.32-.87.75c-.36.3-.75.61-1.18.94s-.87.68-1.33,1-.92.69-1.36,1c-.12.32-.26.64-.39,1s-.27.66-.39,1a4.71,4.71,0,0,1,1,1.83,7.9,7.9,0,0,1,.34,2.35,8.48,8.48,0,0,1-.29,2.18,6.52,6.52,0,0,1-.91,1.94,6.86,6.86,0,0,1-.56.65,5.89,5.89,0,0,1-.77.65,3,3,0,0,1-.81.4.71.71,0,0,1-.67-.06.78.78,0,0,1-.29-.42,2.81,2.81,0,0,1-.08-.7,9,9,0,0,1,.26-1.92c.18-.75.38-1.5.61-2.26s.47-1.46.7-2.11.41-1.13.54-1.46l.3-.81a.83.83,0,0,0-.2-.16l-.27-.17a2,2,0,0,0-.33-.15L51.67,18c-.28.16-.55.3-.81.43a6.56,6.56,0,0,1-.63.27q-.45.12-.51-.06c0-.12.07-.29.35-.52a2.81,2.81,0,0,1,1.57-.66c.3-.18.64-.39,1-.64s.74-.49,1.1-.75l.94-2.3.54-1.26-.88,1.12c-.3.35-.59.68-.89,1a5.14,5.14,0,0,1-.4.41l-.35.32a.26.26,0,0,1-.39,0,.34.34,0,0,1,0-.2A.28.28,0,0,1,52.47,15Zm1.7,7.75a8.13,8.13,0,0,0-.26-2A4.71,4.71,0,0,0,53.15,19c-.32.87-.62,1.73-.89,2.57s-.53,1.64-.74,2.43c0,.1-.08.26-.15.5s-.12.49-.18.78-.12.58-.17.88A6.35,6.35,0,0,0,51,27a1.37,1.37,0,0,0,.12.64c.09.15.25.18.47.09a2.58,2.58,0,0,0,.63-.38,4.6,4.6,0,0,0,.56-.52,6.62,6.62,0,0,0,.47-.61,5,5,0,0,0,.36-.62A5.27,5.27,0,0,0,54,24.23,7.66,7.66,0,0,0,54.17,22.72Zm-.77-5.78-.5.34-.48.32.1,0h0s0,0,0,0A3.21,3.21,0,0,1,53,18Zm-.22,2,0,.05,0-.05ZM58.11,7.46l.38-.61-.31.64Zm2.16-3.95c-.24.36-.51.83-.82,1.41s-.64,1.23-1,1.93c.4-.68.76-1.31,1.07-1.89A14.28,14.28,0,0,0,60.27,3.51Zm0,0,0,0v0Z" transform="translate(-3.56 -1.66)" fill="#1d1d1b"/>
           <path mask="url(#mask-scented-o)" id="for-o" d="M58.82,14.54a.23.23,0,0,1,.11.16.25.25,0,0,1-.07.2l.15-.12a2.82,2.82,0,0,1,.6-.32,1.72,1.72,0,0,1,.64-.14.67.67,0,0,1,.48.17h0a.78.78,0,0,1,.2.59,2.54,2.54,0,0,1-.1.68,6.49,6.49,0,0,1-.26.74c-.11.24-.23.47-.36.7a4.74,4.74,0,0,1-.37.55,3.46,3.46,0,0,1-.9.79,1.71,1.71,0,0,1-.9.28.83.83,0,0,1-.56-.19,1,1,0,0,1-.3-.58,1.92,1.92,0,0,1,0-.79,5,5,0,0,1,.24-.88,5.49,5.49,0,0,1,.43-.88,8.14,8.14,0,0,1,.54-.81.49.49,0,0,1,.21-.14A.37.37,0,0,1,58.82,14.54Zm-1,2.45c0,.09,0,.18,0,.26a1.81,1.81,0,0,0,0,.25,1.22,1.22,0,0,0,.09.46.45.45,0,0,0,.42.29,1,1,0,0,0,.48-.14,2,2,0,0,0,.47-.36,3.14,3.14,0,0,0,.48-.6,4.6,4.6,0,0,0,.4-.76,5.11,5.11,0,0,0,.23-.77,1.19,1.19,0,0,0,0-.62.19.19,0,0,0-.17-.11,1,1,0,0,0-.29,0,1.45,1.45,0,0,0-.31.11.89.89,0,0,0-.26.16,4,4,0,0,0-.82.86q-.37.51-.66,1Z" transform="translate(-3.56 -1.66)" fill="#1d1d1b"/>
           <path mask="url(#mask-scented-r)" id="for-r" d="M63.23,14.34l-.4,1c-.12.32-.25.67-.39,1.07a17.7,17.7,0,0,1,1.31-1.58,11,11,0,0,1,1.48-1.3,5.71,5.71,0,0,1,.65-.38,1.35,1.35,0,0,1,.54-.14.44.44,0,0,1,.38.17.71.71,0,0,1,.11.56.45.45,0,0,1,0,.11.52.52,0,0,0,0,.11.35.35,0,0,1-.14.2.47.47,0,0,1-.2.12.25.25,0,0,1-.19-.07.2.2,0,0,1,0-.08.28.28,0,0,1,0-.09c0-.28,0-.42-.16-.41a1.44,1.44,0,0,0-.67.31,9.39,9.39,0,0,0-1,.86,12.19,12.19,0,0,0-1,1.06c-.31.38-.6.76-.87,1.15s-.5.76-.7,1.11a2.12,2.12,0,0,0-.11.21c0,.06-.07.13-.11.2a.36.36,0,0,1-.39.24c-.16,0-.21-.13-.15-.31a.17.17,0,0,1,0-.05c.26-.78.53-1.57.82-2.38s.58-1.59.88-2.38a.39.39,0,0,1,.14-.18.35.35,0,0,1,.23-.09.17.17,0,0,1,.18.1.3.3,0,0,1,0,.21Z" transform="translate(-3.56 -1.66)" fill="#1d1d1b"/>
           <path mask="url(#mask-scented-y)" id="you-y" d="M71.16,14.67l0,.08a.2.2,0,0,0,0,.08.43.43,0,0,1,0,.07s0,0,0,0l-.44.87c-.17.35-.32.69-.46,1a7.35,7.35,0,0,0-.3.91c-.07.27-.07.44,0,.52a.86.86,0,0,0,.56,0,2.61,2.61,0,0,0,.6-.34c.2-.15.39-.31.58-.48s.35-.35.5-.51l.1-.1.46-.47c.13-.13.26-.26.41-.39a3.82,3.82,0,0,1,.43-.33,1.34,1.34,0,0,1,.39-.18.29.29,0,0,1,.3.05,1.41,1.41,0,0,1,0,.75,12.57,12.57,0,0,1-.29,1.37c-.09.36-.18.74-.28,1.13s-.19.77-.29,1.13a10.58,10.58,0,0,1,2.38-.33H76c.19,0,.25.13.19.3a.34.34,0,0,1-.15.18.39.39,0,0,1-.23.07h-.19a10.76,10.76,0,0,0-1.24.11,9.88,9.88,0,0,0-1.25.26l-.41,1.36-.12.38c-.15.44-.34,1-.58,1.66s-.52,1.37-.85,2.12-.7,1.48-1.11,2.22a13.55,13.55,0,0,1-1.35,2,7.29,7.29,0,0,1-1.58,1.44,3.22,3.22,0,0,1-1.79.55,3,3,0,0,1-.68-.08,1.42,1.42,0,0,1-1-.62,2.17,2.17,0,0,1-.27-1.11,4.1,4.1,0,0,1,.11-.9,5.39,5.39,0,0,1,.27-.95,9.53,9.53,0,0,1,.38-.93c.14-.3.29-.58.43-.84a14,14,0,0,1,1.57-2.17,16.22,16.22,0,0,1,2-1.91,16.44,16.44,0,0,1,2.21-1.53A14.24,14.24,0,0,1,72.67,20c.06-.2.12-.43.18-.68s.13-.5.2-.76.13-.5.19-.74.12-.47.17-.67.1-.44.13-.64.06-.37.09-.5a1.46,1.46,0,0,0-.32.26l-.35.37-.2.2q-.36.38-.78.78a9.12,9.12,0,0,1-.86.72,3.24,3.24,0,0,1-.87.44,1.12,1.12,0,0,1-.79,0c-.17-.06-.25-.23-.25-.51a2.68,2.68,0,0,1,.13-.75,7.77,7.77,0,0,1,.34-.9c.13-.3.26-.61.41-.91l.39-.79.21-.42a.36.36,0,0,1,.39-.24.23.23,0,0,1,.18.1.26.26,0,0,1,0,.22Zm1.34,5.89a10.85,10.85,0,0,0-2,1,15.46,15.46,0,0,0-2,1.42,19.26,19.26,0,0,0-1.78,1.72,17.37,17.37,0,0,0-1.46,1.88q-.21.36-.45.81a9.7,9.7,0,0,0-.41.93,8.19,8.19,0,0,0-.31,1,3.64,3.64,0,0,0-.12.89,1.67,1.67,0,0,0,.21.85,1.14,1.14,0,0,0,.73.51,2.35,2.35,0,0,0,.54.06A2.72,2.72,0,0,0,67.1,31a7.3,7.3,0,0,0,1.47-1.51,15.85,15.85,0,0,0,1.28-2.07c.39-.77.74-1.53,1.06-2.3s.59-1.48.82-2.15.42-1.23.55-1.66Z" transform="translate(-3.56 -1.66)" fill="#1d1d1b"/>
           <path mask="url(#mask-scented-oo)" id="you-oo" d="M76.41,14.54a.26.26,0,0,1,.11.16.29.29,0,0,1-.07.2l.15-.12a3,3,0,0,1,.59-.32,1.81,1.81,0,0,1,.65-.14.69.69,0,0,1,.48.17h0a.78.78,0,0,1,.2.59,2.54,2.54,0,0,1-.1.68,5.05,5.05,0,0,1-.27.74,6.53,6.53,0,0,1-.35.7,4.74,4.74,0,0,1-.37.55,3.46,3.46,0,0,1-.9.79,1.77,1.77,0,0,1-.9.28.81.81,0,0,1-.56-.19,1,1,0,0,1-.31-.58,2.34,2.34,0,0,1,0-.79,5.08,5.08,0,0,1,.25-.88,5.43,5.43,0,0,1,.42-.88,8.19,8.19,0,0,1,.55-.81.43.43,0,0,1,.21-.14A.37.37,0,0,1,76.41,14.54Zm-1,2.45a1.32,1.32,0,0,0,0,.26,1,1,0,0,0,0,.25,1.44,1.44,0,0,0,.08.46.46.46,0,0,0,.43.29,1,1,0,0,0,.47-.14,2,2,0,0,0,.48-.36,3.14,3.14,0,0,0,.48-.6,5.51,5.51,0,0,0,.4-.76,5.11,5.11,0,0,0,.23-.77,1.31,1.31,0,0,0,0-.62.19.19,0,0,0-.18-.11,1,1,0,0,0-.28,0,1.45,1.45,0,0,0-.31.11.89.89,0,0,0-.26.16,4,4,0,0,0-.82.86q-.37.51-.66,1Z" transform="translate(-3.56 -1.66)" fill="#1d1d1b"/>
           <path mask="url(#mask-scented-u)" id="you-u" d="M80.68,15.22h0a4.64,4.64,0,0,0-.44.69,7.61,7.61,0,0,0-.39.88,3.83,3.83,0,0,0-.2.85.68.68,0,0,0,.12.56c.11.1.26.1.47,0a3.93,3.93,0,0,0,.67-.45,8.22,8.22,0,0,0,.71-.63c.23-.23.42-.41.55-.56l.29-.29a3.12,3.12,0,0,0,.27-.26,3.17,3.17,0,0,1,.34-.28,4,4,0,0,1,.66-.4c.22-.09.37-.06.46.09a.41.41,0,0,1,0,.21,1.35,1.35,0,0,1,0,.33s0,0,0,0v0c0,.16,0,.31-.08.46s-.05.3-.08.44-.06.31-.08.45a2.94,2.94,0,0,0,0,.37c0,.24.09.35.28.35a2.48,2.48,0,0,0,1-.4c.47-.27,1.16-.73,2.07-1.36l.11-.09.16-.12a.49.49,0,0,1,.23-.06.17.17,0,0,1,.16.08.18.18,0,0,1,0,.2.48.48,0,0,1-.17.21l-.56.39-.84.59c-.29.21-.57.39-.86.56a6.53,6.53,0,0,1-.79.4,1.7,1.7,0,0,1-.67.17.61.61,0,0,1-.53-.32,1.68,1.68,0,0,1-.15-1,3.35,3.35,0,0,1,.06-.36c0-.14.06-.29.1-.43s0-.25.06-.35,0-.21.06-.3l0,0a3,3,0,0,0-.51.4l-.63.58c-.26.26-.53.52-.82.78a9.3,9.3,0,0,1-.84.68,2.94,2.94,0,0,1-.77.39.69.69,0,0,1-.63-.06.91.91,0,0,1-.32-.77,3.16,3.16,0,0,1,.11-.75,6.56,6.56,0,0,1,.29-.81,7.91,7.91,0,0,1,.39-.77,7.1,7.1,0,0,1,.4-.63.74.74,0,0,1,.21-.13.35.35,0,0,1,.22,0c.1.06.12.16.06.31Z" transform="translate(-3.56 -1.66)" fill="#1d1d1b"/>
       </g>
 
      <defs>
          <g id="scented-masks">
          <mask id="mask-scented-s">
              <path class="mask" id="mask-s" d="M6.43,15s.28-.9-.18-.86A1.47,1.47,0,0,0,5,14.82c-.34.5-.76.94-.52,1.52s1,.92,1.12,1.33a1.69,1.69,0,0,1-.54,1.47c-.42.28-1,.34-1.12,0a1.26,1.26,0,0,1,.54-1.24,14.13,14.13,0,0,1,2.28-1.08c.6-.28.9-.4.9-.4l.2-.12"  fill="none" stroke="#a21544" stroke-miterlimit="10" stroke-width="0.75"/></mask>
          
              <mask id="mask-scented-c">
              <path class="mask" id="mask-c" d="M9.94,15.44s.6-.61.45-.84-.74.18-1.14.46c-.93.65-2.26,2-1.88,2.86a1.41,1.41,0,0,0,1.42.7,14,14,0,0,0,4.38-2.4" fill="none" stroke="#a21544" stroke-miterlimit="10" stroke-width="0.75"/>
           </mask>
              <mask id="mask-scented-e">
              <path class="mask" id="mask-e" d="M13.41,15.83c.46.19,2.37,0,2.43-.73S14.18,15,13,16.37s-.45,2.89,1.8,1.76,3.16-1.67,3.44-1.78" fill="none" stroke="#a21544" stroke-miterlimit="10" stroke-width="0.75"/>
           </mask>
          
              <mask id="mask-scented-n">
              <path class="mask" id="mask-n" d="M19.52,13.77s-2.31,4.25-1.7,5c.44.6,3.08-4.28,5.2-4.35,1.17.07.61,1.62.95,2.87s3.29-1.09,3.29-1.09" fill="none" stroke="#a21544" stroke-miterlimit="10" stroke-width="0.75"/>
           </mask>
 
              <mask id="mask-scented-t">
             <g id="mask-t">
               <path class="mask" id="mask-t-line"  d="M33.13,4.35S24.37,19,26.51,21.45c1.9.16,8.8-5.55,8.8-5.55" fill="none" stroke="#a21544" stroke-miterlimit="10" stroke-width="0.75"/>
          
              <path class="mask" id="mask-t-other" d="M26.55,9.47A40,40,0,0,1,34.6,9" fill="none" stroke="#a21544" stroke-miterlimit="10" stroke-width="0.75"/>
           </g>
           </mask>
          
              <mask id="mask-scented-ee">
              <path class="mask" id="mask-ee" d="M35.13,15.86c.46.18,2.37,0,2.43-.74S35.9,15,34.74,16.39s-.46,2.89,1.8,1.76,3.42-1.74,3.69-1.86" fill="none" stroke="#a21544" stroke-miterlimit="10" stroke-width="0.75"/>
           </mask>
 
              <mask id="mask-scented-d">
              <path class="mask" id="mask-d" d="M43.43,14.82s-1-2.33-4.19,3.14c0,1.27,1.82,0,1.82,0C43.25,16.09,51.41,5.18,51,2.65,50.06,1,46.31,3.44,44,12.9c-.25,3-.61,4.55.79,4.78,1.72.29,3.41-2,3.41-2" fill="none" stroke="#a21544" stroke-miterlimit="10"/>
           </mask>
 
               <mask id="mask-scented-f">
           <path class="mask" id="mask-f" d="M52.33,15.36S60.24,6.91,61,3.13C61.57,0,50.15,20.54,50.55,27.8c1.87,1.87,7.56-6.35,1.17-10.35a4.89,4.89,0,0,0-2,1.23s7.42-3.58,11.85-9.63"  fill="none" stroke="#a21544" stroke-miterlimit="10"/>
       </mask>
           <mask id="mask-scented-o">
           <path class="mask" id="mask-o" d="M59,14.21a9.32,9.32,0,0,0-1.14,1.62c-.55,1.14-.64,2.86.45,2.59,1.88-.48,3-3.59,2-3.81s-2.71,1.81-2.71,1.81"  fill="none" stroke="#a21544" stroke-miterlimit="10"/>
       </mask>
           <mask id="mask-scented-r">
           <path class="mask" id="mask-r" d="M63.34,13.44l-2,5.37s4.11-6.78,5.14-5.37c.56.77-.26.88-.26.88" fill="none" stroke="#a21544" stroke-miterlimit="10"/>
       </mask>
           <mask id="mask-scented-y">
           <path class="mask" id="mask-y" d="M71.35,14s-2.52,4.28-1.54,4.63,3.58-3.05,4.08-3.12.19.28.19.28-2,8.73-3.46,10.76-3.45,6.94-6.36,5,4.72-9.07,4.47-9.14,4.85-3.11,7.46-2.74" fill="none" stroke="#a21544" stroke-miterlimit="10"/>
       </mask>
           <mask id="mask-scented-oo">
           <path class="mask" id="mask-oo" d="M76.56,14.45a9.32,9.32,0,0,0-1.14,1.62c-.55,1.14-.64,2.86.44,2.59,1.89-.48,3-3.79,2.06-4s-2.76,2-2.76,2" fill="none" stroke="#a21544" stroke-miterlimit="10"/>
       </mask>
           <mask id="mask-scented-u">
           <path class="mask" id="mask-u" d="M80.77,14.82s-2.29,2.85-1.16,3.73,2.4-2.65,4.37-3c0,0-.94,3.23,0,2.94a29.65,29.65,0,0,0,3.94-2.34" fill="none" stroke="#a21544" stroke-miterlimit="10"/>
       </mask>
           </g>
       </defs>
 
     </svg>