<?xml version="1.0" encoding="utf-8"?>
<!-- Generator: Adobe Illustrator 25.2.0, SVG Export Plug-In . SVG Version: 6.00 Build 0)  -->
<svg version="1.1" id="Layer_1" xmlns="http://www.w3.org/2000/svg" xmlns:xlink="http://www.w3.org/1999/xlink" x="0px" y="0px"
	 viewBox="0 0 2616.8 1297.6" style="enable-background:new 0 0 2616.8 1297.6;" xml:space="preserve">
<style type="text/css">
	.st0{fill:none;}
</style>
<image style="overflow:visible;enable-background:new;" width="2949" height="2243" id="BOX" xlink:href="candle/F1075D7F7374D47C.png"  transform="matrix(1 0 0 1 -156.8358 -828.5786)">
</image>
<path id="light_x5F_one" class="st0" d="M410.3,466.5c0,0,8.5,261.7,19.4,288.1c31.1,4.7,201.1,17.1,265.6,0
	c14-45.8,21-288.1,21-288.1S594.3,460.3,410.3,466.5z"/>
<path id="light_x5F_two" class="st0" d="M910.2,466.5c0,0,8.5,261.7,19.4,288.1c31.1,4.7,201.1,17.1,265.6,0
	c14-45.8,21-288.1,21-288.1S1094.2,460.3,910.2,466.5z"/>
<path id="light_x5F_three" class="st0" d="M1413.5,466.5c0,0,8.5,261.7,19.4,288.1c31.1,4.7,201.1,17.1,265.6,0
	c14-45.8,21-288.1,21-288.1S1597.5,460.3,1413.5,466.5z"/>
<path id="light_x5F_four" class="st0" d="M1911.4,466.5c0,0,8.5,261.7,19.4,288.1c31.1,4.7,201.1,17.1,265.6,0
	c14-45.8,21-288.1,21-288.1S2095.5,460.3,1911.4,466.5z"/>
<image style="overflow:visible;opacity:0.5;enable-background:new;" width="1856" height="425" id="shadow" xlink:href="candle/F1075D7F7374D47D.png"  transform="matrix(1 0 0 1 386.1642 409.4215)">
</image>
<image style="overflow:visible;opacity:0.5;enable-background:new;" width="1856" height="425" id="shadow1" xlink:href="candle/F1075D7F7374D47D.png"  transform="matrix(1 0 0 1 386.1642 409.4215)">
</image>
<image style="overflow:visible;opacity:0.5;enable-background:new;" width="1856" height="425" id="shadow2" xlink:href="candle/F1075D7F7374D47D.png"  transform="matrix(1 0 0 1 386.1642 409.4215)">
</image>
</svg>
